<?xml version="1.0" encoding="UTF-8"?>
<svg width="155px" height="63px" viewBox="0 0 155 63" version="1.1" xmlns="http://www.w3.org/2000/svg" xmlns:xlink="http://www.w3.org/1999/xlink">
    <!-- Generator: Sketch 47.1 (45422) - http://www.bohemiancoding.com/sketch -->
    <title>FC Logo - splash</title>
    <desc>Created with Sketch.</desc>
    <defs>
        <polygon id="path-1" points="5.51192146e-05 0.464654979 153.768278 0.464654979 153.768278 62.8357944 5.51192146e-05 62.8357944"></polygon>
    </defs>
    <g id="Page-1" stroke="none" stroke-width="1" fill="none" fill-rule="evenodd">
        <g id="Login" transform="translate(-102.000000, -67.000000)">
            <g id="Group" transform="translate(0.000000, 24.000000)">
                <g transform="translate(-17.000000, -71.000000)" id="FC-Logo---splash">
                    <g transform="translate(119.608696, 114.096774)">
                        <path d="M15.9318231,32.1746289 C15.9318231,32.4226654 15.9985174,32.6646387 16.1137165,32.8818084 L16.1137165,31.2331927 C16.1137165,31.0761029 16.0420616,30.9261787 15.9318231,30.8159403 L15.9318231,32.1746289 Z M82.3030742,62.5089374 C73.3792734,62.5089374 66.1189704,55.1891058 66.1189704,46.1919964 C66.1189704,41.879469 67.847509,37.71411 70.8944992,34.6097958 L35.7262355,34.6097958 L35.7262355,33.695368 C34.5036913,34.3237271 33.0937418,34.67649 31.7593056,34.67649 C30.0605314,34.67649 28.3529381,34.1749052 26.9523589,33.264887 C26.0897432,32.6503077 25.3875244,32.0605321 24.8264108,31.4790244 L24.8264108,33.5994606 L16.829164,33.5994606 C17.0468849,33.7157621 17.2894094,33.7830076 17.5379971,33.7830076 L19.9064697,33.7830076 L19.9064697,42.5596401 L0.413559467,42.5596401 L0.413559467,33.7830076 L2.78203212,33.7830076 C3.61543464,33.7830076 4.3204094,33.0466149 4.3204094,32.1746289 L4.3204094,20.3140763 C4.3204094,19.4128771 3.64464783,18.7073512 2.78203212,18.7073512 L0.413559467,18.7073512 L0.413559467,9.9274115 L26.7814893,9.9274115 L26.7814893,11.3164157 C28.2366366,10.2978126 30.0081682,9.72567518 31.7593056,9.72567518 C33.9558063,9.72567518 36.1903393,10.6527804 37.7921036,12.2176149 L49.2899718,7.78382525 L49.2899718,10.22726 C50.0158919,10.0756822 50.7258273,9.99631052 51.3668638,9.99631052 C52.7839788,9.99631052 54.158652,10.5568729 55.1800111,11.5440581 L64.9906801,7.78492763 L64.9906801,10.2217481 C65.6697488,10.0784381 66.416063,9.99631052 67.0719816,9.99631052 C68.5166562,9.99631052 70.0291275,10.6461661 71.034502,11.6967383 C71.0752902,11.7215419 71.1155272,11.7496527 71.1546619,11.7805195 C72.7944585,10.4091534 74.7991443,9.65842973 76.8429648,9.65842973 C79.1712004,9.65842973 81.3280153,10.5634872 82.9468666,12.2143077 L85.7006226,11.1405854 C83.9693281,10.2217481 82.8294627,8.38572707 82.8294627,6.36505666 C82.8294627,3.3869655 85.1924234,0.964476017 88.097206,0.964476017 C91.0367137,0.964476017 93.4283365,3.3869655 93.4283365,6.36505666 C93.4283365,7.03806227 93.3048694,7.70390238 93.0788806,8.29753633 L94.4403252,7.79154194 L94.4403252,11.8984746 L105.222746,7.78603001 L105.222746,10.2200945 C105.891893,10.0762334 106.60238,9.99631052 107.236802,9.99631052 C108.662185,9.99631052 110.035756,10.5524634 111.129321,11.5683105 C112.766913,10.5524634 114.69829,9.99631052 116.604864,9.99631052 L118.556084,9.99631052 C122.500415,9.99631052 125.709456,13.2648799 125.709456,17.2825195 L125.709456,24.2242334 C125.709456,24.547232 126.013714,24.8200721 126.373642,24.8200721 L132.648414,24.8200721 L132.648414,29.808361 L135.616583,29.808361 L135.616583,30.8964143 C137.100944,30.1914396 138.677904,29.808361 140.122028,29.808361 L142.193959,29.8072586 C146.14766,29.8072586 149.364418,33.107246 149.364418,37.1629178 L149.364418,45.1133133 C149.364418,45.1568575 149.379851,45.1722909 149.423395,45.1722909 C149.43938,45.1722909 149.460325,45.1673302 149.479066,45.1601647 L149.479066,44.1090412 L153.212841,48.5725952 L149.3793,52.5433835 C148.232269,53.6948238 146.6283,54.3529473 144.974172,54.3529473 C143.941789,54.3529473 142.868618,54.0685321 141.858283,53.5272614 C140.474791,54.1506597 139.00421,54.4918477 137.695129,54.4918477 C136.124231,54.4918477 134.494907,53.9208126 133.175353,52.9154381 C131.796822,53.9208126 130.049543,54.4918477 128.32817,54.4918477 C126.438132,54.4918477 124.583921,53.5630889 123.374055,52.0379403 C121.87867,53.5829318 119.738391,54.4918477 117.546851,54.4918477 C116.174934,54.4918477 114.664116,54.1798729 113.283931,53.6126962 L113.164322,53.6126962 C113.035895,53.6126962 112.905262,53.6755321 112.905262,53.7372656 L112.905262,54.1506597 L107.363025,54.1506597 L107.363025,52.8360665 C105.646613,53.921915 103.75437,54.4918477 101.846694,54.4918477 C99.6843673,54.4918477 97.514875,53.7493919 95.7984627,52.4370034 C93.9420475,58.3094045 88.3656366,62.5089374 82.3030742,62.5089374 L82.3030742,62.5089374 Z" id="Fill-1" fill="#C00D0E"></path>
                        <g id="Group-5" transform="translate(0.000000, 0.086537)">
                            <mask id="mask-2" fill="white">
                                <use xlink:href="#path-1"></use>
                            </mask>
                            <g id="Clip-4"></g>
                            <path d="M88.0970958,0.464544741 C84.9646708,0.464544741 82.4159583,3.07278597 82.4159583,6.2785195 C82.4159583,8.1591871 83.3336933,9.8921352 84.7882893,10.9664087 L83.0470734,11.6454774 C81.3731028,10.0370987 79.1914843,9.15849846 76.8428546,9.15849846 C74.8144675,9.15849846 72.8257662,9.86237083 71.1639219,11.1549164 C70.0780734,10.1115097 68.5705628,9.49637924 67.0718714,9.49637924 C66.5465853,9.49637924 65.9661799,9.54708892 65.403964,9.63803562 L65.403964,8.29974109 L65.403964,7.09759102 L64.2811856,7.5275209 L55.2713987,10.9796373 C54.1965741,10.0310356 52.8026091,9.49637924 51.3667536,9.49637924 C50.845877,9.49637924 50.2831098,9.54598654 49.7032557,9.64244516 L49.7032557,8.29974109 L49.7032557,7.09483506 L48.5788237,7.52807209 L37.8867985,11.6515405 C36.2255053,10.1241871 33.9744366,9.2257439 31.7591954,9.2257439 C30.1783763,9.2257439 28.5815727,9.67055596 27.1947732,10.4763989 L27.1947732,10.2542684 L27.1947732,9.42748022 L26.367985,9.42748022 L0.826843338,9.42748022 L5.51192146e-05,9.42748022 L5.51192146e-05,10.2542684 L5.51192146e-05,18.2074199 L5.51192146e-05,19.0342081 L0.826843338,19.0342081 L2.78192188,19.0342081 C3.41248569,19.0342081 3.90690505,19.5583919 3.90690505,20.2275391 L3.90690505,32.0880917 C3.90690505,32.7247187 3.38106774,33.2830763 2.78192188,33.2830763 L0.826843338,33.2830763 L5.51192146e-05,33.2830763 L5.51192146e-05,34.1098645 L5.51192146e-05,42.0597088 L5.51192146e-05,42.8864971 L0.826843338,42.8864971 L19.4929654,42.8864971 L20.3197536,42.8864971 L20.3197536,42.0597088 L20.3197536,34.1098645 L20.3197536,33.9263175 L24.4129065,33.9263175 L25.2396947,33.9263175 L25.2396947,33.0995293 L25.2396947,32.3570735 C25.6674198,32.7346401 26.1519177,33.1160651 26.6970467,33.5052067 L26.7119289,33.5151282 L26.7268111,33.5250496 C28.1940846,34.4780609 29.9810495,35.003347 31.7591954,35.003347 C32.9431561,35.003347 34.1833384,34.7387748 35.3127311,34.2586864 L35.3127311,34.9366527 L36.1395194,34.9366527 L69.9463384,34.9366527 C67.2317171,38.0299431 65.7054661,42.0023849 65.7054661,46.1054592 C65.7054661,50.5954704 67.4240832,54.8016177 70.5443819,57.949476 C73.6674366,61.1006415 77.8432683,62.8357944 82.302964,62.8357944 C88.4597802,62.8357944 93.9369766,58.8539823 96.0133174,53.0141015 C97.7192571,54.1710539 99.7862276,54.8187046 101.846584,54.8187046 C103.600477,54.8187046 105.339488,54.3573568 106.949521,53.4732446 L106.949521,53.6507285 L106.949521,54.4775167 L107.776309,54.4775167 L112.491758,54.4775167 L113.318546,54.4775167 L113.318546,53.9853021 C114.694873,54.5238168 116.185296,54.8187046 117.547292,54.8187046 C119.694737,54.8187046 121.796984,53.9869557 123.345834,52.5566121 C124.629009,53.9709711 126.461723,54.8187046 128.328059,54.8187046 C130.033448,54.8187046 131.76364,54.2845994 133.169731,53.3376513 C134.514089,54.2845994 136.131287,54.8187046 137.695019,54.8187046 C139.002998,54.8187046 140.462003,54.4940525 141.843291,53.8993161 C142.860791,54.4113736 143.935616,54.6798042 144.974062,54.6798042 C146.737877,54.6798042 148.448777,53.9775854 149.668014,52.7528365 L153.251866,49.0405574 L153.768333,48.505901 L153.291,47.9359683 L150.526772,44.630469 L149.777702,43.735333 L149.777702,37.0763806 C149.777702,32.7925153 146.375744,29.3073273 142.1944,29.3073273 L142.061563,29.3089809 L140.121918,29.3084297 C138.808978,29.3084297 137.392965,29.6110342 136.029867,30.1743526 L136.029867,30.135218 L136.029867,29.3084297 L135.203079,29.3084297 L133.061697,29.3084297 L133.061697,25.146929 L133.061697,24.3201408 L132.234909,24.3201408 L126.373532,24.3201408 C126.218096,24.3201408 126.12274,24.2137607 126.12274,24.1376962 L126.12274,17.1959823 C126.12274,12.9501492 122.727947,9.49637924 118.555974,9.49637924 L116.604754,9.49637924 C114.723535,9.49637924 112.820268,10.0167046 111.176613,10.9713694 C110.046669,10.0161534 108.667035,9.49637924 107.237243,9.49637924 C106.722981,9.49637924 106.176749,9.54378177 105.63603,9.63362609 L105.63603,8.29974109 L105.63603,7.0992446 L104.514905,7.52696971 L94.8536091,11.2122404 L94.8536091,8.29974109 L94.8536091,7.11081964 L93.7385474,7.52476494 L93.7076806,7.53633997 C93.7953202,7.12845778 93.8416203,6.70459102 93.8416203,6.2785195 C93.8416203,3.07278597 91.2647971,0.464544741 88.0970958,0.464544741 M88.0970958,1.29133296 C90.7924254,1.29133296 93.0148321,3.51484208 93.0148321,6.2785195 C93.0148321,7.22271164 92.7458504,8.23304684 92.205682,8.97605386 L94.0268209,8.29974109 L94.0268209,12.4121857 L104.809242,8.29974109 L104.809242,10.6604971 C105.548942,10.4554536 106.426991,10.3231675 107.237243,10.3231675 C108.6505,10.3231675 109.999267,10.9294788 111.009051,11.9403652 C111.009051,11.9403652 111.076296,11.9403652 111.076296,12.0076107 C112.692392,10.9294788 114.649124,10.3231675 116.604754,10.3231675 L118.555974,10.3231675 C122.261639,10.3231675 125.295951,13.4225209 125.295951,17.1959823 L125.295951,24.1376962 C125.295951,24.6778645 125.768323,25.146929 126.373532,25.146929 L132.234909,25.146929 L132.234909,30.135218 L135.203079,30.135218 L135.203079,31.4839851 C136.686337,30.6759374 138.437474,30.135218 140.121918,30.135218 L142.075894,30.135218 C142.115028,30.1346668 142.154714,30.1341156 142.1944,30.1341156 C146.045028,30.1341156 148.950913,33.3370931 148.950913,37.0763806 L148.950913,45.0267762 C148.950913,45.2979627 149.150996,45.4991478 149.423285,45.4991478 C149.625573,45.4991478 149.89235,45.3635546 149.89235,45.161267 L152.657129,48.4662151 L149.082097,52.1696752 C148.007824,53.2483582 146.526219,53.853016 144.974062,53.853016 C143.896481,53.853016 142.817247,53.5162376 141.874709,52.9777229 C140.593738,53.5829318 139.109378,53.9919164 137.695019,53.9919164 C136.011678,53.9919164 134.393929,53.3150525 133.180755,52.3052684 C131.833641,53.3806443 130.082504,53.9919164 128.328059,53.9919164 C126.373532,53.9919164 124.487352,52.9110286 123.408118,51.2976892 C121.992106,52.9777229 119.77025,53.9919164 117.547292,53.9919164 C116.129626,53.9919164 114.649124,53.6507285 113.3665,53.1127649 L113.164763,53.1127649 C112.827434,53.1127649 112.491758,53.3150525 112.491758,53.6507285 L107.776309,53.6507285 L107.776309,51.9679388 C106.023518,53.2483582 104.000643,53.9919164 101.846584,53.9919164 C99.5525222,53.9919164 97.2617676,53.1127649 95.5767732,51.6344676 C93.9590243,57.6953764 88.4311182,62.0090062 82.302964,62.0090062 C73.5401112,62.0090062 66.5322543,54.9328014 66.5322543,46.1054592 C66.5322543,41.5233989 68.5545783,37.1425237 71.9229135,34.1098645 L36.1395194,34.1098645 L36.1395194,32.8972418 C34.8568952,33.7074942 33.2407999,34.1765588 31.7591954,34.1765588 C30.1414464,34.1765588 28.5247999,33.7074942 27.1776863,32.8316499 C26.2329429,32.1580931 25.1559135,31.2822488 24.4129065,30.2686065 L24.4129065,33.0995293 L16.5270004,33.0995293 L16.5270004,31.1466555 C16.5270004,30.6053849 16.0590383,30.135218 15.5183188,30.135218 L15.5183188,32.0880917 C15.5183188,33.1656724 16.4625109,34.1098645 17.5378868,34.1098645 L19.4929654,34.1098645 L19.4929654,42.0597088 L0.826843338,42.0597088 L0.826843338,34.1098645 L2.78192188,34.1098645 C3.85840014,34.1098645 4.73369327,33.1656724 4.73369327,32.0880917 L4.73369327,20.2275391 C4.73369327,19.0816107 3.85840014,18.2074199 2.78192188,18.2074199 L0.826843338,18.2074199 L0.826843338,10.2542684 L26.367985,10.2542684 L26.367985,12.0743049 C27.8506919,10.7944367 29.8041168,10.0525321 31.7591954,10.0525321 C33.9138055,10.0525321 36.1395194,10.9967243 37.6889205,12.613922 L48.8764675,8.29974109 L48.8764675,10.6604971 C49.683964,10.4554536 50.5603595,10.3231675 51.3667536,10.3231675 C52.7833174,10.3231675 54.1309822,10.9294788 55.0751743,11.9403652 L64.5771757,8.29974109 L64.5771757,10.6604971 C65.3201827,10.4554536 66.2627213,10.3231675 67.0718714,10.3231675 C68.4195362,10.3231675 69.8355488,10.9294788 70.7775362,11.9403652 C70.9131295,12.0076107 71.046518,12.1426527 71.1148658,12.2771436 C72.6659205,10.8616822 74.6854885,9.98528668 76.8428546,9.98528668 C79.1347115,9.98528668 81.2882192,10.9294788 82.8387227,12.613922 L86.8161252,11.0628673 C84.7276582,10.4554536 83.2427466,8.50368219 83.2427466,6.2785195 C83.2427466,3.51484208 85.401215,1.29133296 88.0970958,1.29133296" id="Fill-3" fill="#FEFEFE" mask="url(#mask-2)"></path>
                        </g>
                        <path d="M88.166546,4.41234825 C89.2430243,4.41234825 90.1210734,5.28819257 90.1210734,6.36467083 C90.1210734,7.44280266 89.2430243,8.38589243 88.166546,8.38589243 C87.087863,8.38589243 86.1436708,7.44280266 86.1436708,6.36467083 C86.1436708,5.28819257 87.087863,4.41234825 88.166546,4.41234825 L88.166546,4.41234825 Z M21.4491463,19.3033553 C21.4491463,17.6200144 20.1692781,16.3373903 18.5487732,16.3373903 L12.6201505,16.3373903 L12.6201505,24.2894394 L17.5378868,24.2894394 C18.6160187,24.2894394 19.4929654,23.4174534 19.4929654,22.2709738 L19.4929654,21.258985 L21.4491463,21.258985 L21.4491463,30.2219205 L19.4929654,30.2219205 L19.4929654,29.2099317 C19.4929654,28.1317999 18.6160187,27.2565067 17.5378868,27.2565067 L12.6201505,27.2565067 L12.6201505,35.2074534 C12.6201505,36.2866877 13.4959948,37.1630832 14.5741266,37.1630832 L16.5947971,37.1630832 L16.5947971,39.1854072 L3.79391066,39.1854072 L3.79391066,37.1630832 L5.74733562,37.1630832 C6.89161052,37.1630832 7.76690365,36.2866877 7.76690365,35.2074534 L7.76690365,17.2826849 C7.76690365,16.2056554 6.89161052,15.3287087 5.74733562,15.3287087 L3.79391066,15.3287087 L3.79391066,13.3758349 L23.4014689,13.3758349 L23.4014689,19.3033553 L21.4491463,19.3033553 Z M45.9788504,12.7006245 L45.9788504,15.530445 C47.3937606,14.1149836 49.4149822,13.3758349 51.3667536,13.3758349 C52.7155208,13.3758349 53.8642052,14.4512108 53.8642052,15.7988756 C53.8642052,17.1492964 52.7155208,18.2941224 51.3667536,18.2941224 C50.5603595,18.2941224 49.8184548,17.8878938 49.4149822,17.1492964 C49.1443468,16.6085769 48.6058321,16.3373903 47.9322753,16.3373903 C46.8524899,16.3373903 45.9788504,17.2159906 45.9788504,18.2941224 L45.9788504,27.2565067 C45.9788504,28.3340874 46.8524899,29.2099317 47.9322753,29.2099317 L48.8764675,29.2099317 L48.8764675,31.2333581 L39.1032795,31.2333581 L39.1032795,29.2099317 L40.1152683,29.2099317 C41.1934001,29.2099317 42.0703468,28.3340874 42.0703468,27.2565067 L42.0703468,18.2941224 C42.0703468,17.4855236 41.3940341,16.8103132 40.58764,16.8103132 C40.3859036,16.8103132 40.2508616,16.8103132 40.1152683,16.8792122 L39.1032795,17.2826849 L39.1032795,15.3287087 L45.9788504,12.7006245 Z M61.6795586,12.7006245 L61.6795586,15.530445 C63.0933665,14.1149836 65.1162417,13.3758349 67.0718714,13.3758349 C68.4195362,13.3758349 69.5654647,14.4512108 69.5654647,15.7988756 C69.5654647,17.1492964 68.4195362,18.2941224 67.0718714,18.2941224 C66.2627213,18.2941224 65.5213679,17.8878938 65.1162417,17.1492964 C64.9134029,16.6085769 64.2403973,16.3373903 63.6324324,16.3373903 C62.5576077,16.3373903 61.6795586,17.2159906 61.6795586,18.2941224 L61.6795586,27.2565067 C61.6795586,28.3340874 62.5576077,29.2099317 63.6324324,29.2099317 L64.6444212,29.2099317 L64.6444212,31.2333581 L54.8056414,31.2333581 L54.8056414,29.2099317 L55.8148742,29.2099317 C56.895762,29.2099317 57.7721575,28.3340874 57.7721575,27.2565067 L57.7721575,18.2941224 C57.7721575,17.4855236 57.0980495,16.8103132 56.2883482,16.8103132 C56.1516526,16.8103132 55.9515698,16.8103132 55.8148742,16.8792122 L54.8056414,17.2826849 L54.8056414,15.3287087 L61.6795586,12.7006245 Z M91.1303062,12.7006245 L91.1303062,27.2565067 C91.1303062,28.3340874 92.0055993,29.2099317 93.0826288,29.2099317 L94.0268209,29.2099317 L94.0268209,31.2333581 L84.1858363,31.2333581 L84.1858363,29.2099317 L85.1994787,29.2099317 C86.2781617,29.2099317 87.1529036,28.3340874 87.1529036,27.2565067 L87.1529036,18.2941224 C87.1529036,17.4855236 86.4804492,16.8103132 85.7385446,16.8103132 C85.5362571,16.8103132 85.401215,16.8103132 85.1994787,16.9453553 L84.1858363,17.2826849 L84.1858363,15.3287087 L91.1303062,12.7006245 Z M101.911625,12.7006245 L101.911625,15.530445 C103.327637,14.1149836 105.280511,13.3758349 107.30504,13.3758349 C108.6505,13.3758349 109.726978,14.4512108 109.726978,15.7988756 C109.726978,17.1492964 108.6505,18.2941224 107.30504,18.2941224 C106.49148,18.2941224 105.685086,17.8878938 105.348859,17.1492964 C105.077121,16.6085769 104.472463,16.3373903 103.864498,16.3373903 C102.790776,16.3373903 101.911625,17.2159906 101.911625,18.2941224 L101.911625,27.2565067 C101.911625,28.3340874 102.790776,29.2099317 103.864498,29.2099317 L104.809242,29.2099317 L104.809242,31.2333581 L95.0377073,31.2333581 L95.0377073,29.2099317 L95.9818994,29.2099317 C97.0594801,29.2099317 97.9380804,28.3340874 97.9380804,27.2565067 L97.9380804,18.2941224 C97.9380804,17.4855236 97.2617676,16.8103132 96.5215165,16.8103132 C96.3186778,16.8103132 96.1174927,16.8103132 95.9818994,16.8792122 L95.0377073,17.2826849 L95.0377073,15.3287087 L101.911625,12.7006245 Z M83.2427466,56.3004745 C86.0075264,56.433863 89.6487017,55.0884029 90.5901379,52.6642599 L91.7338616,53.2678153 C89.9138251,56.7733973 86.2103651,59.0641519 82.302964,59.0641519 C75.2251056,59.0641519 69.5654647,53.2678153 69.5654647,46.1238139 C69.5654647,38.9836708 75.2251056,33.2523749 82.302964,33.2523749 C83.9185081,33.2523749 86.2781617,33.9931771 87.6947255,34.7345306 C87.9637073,34.8701238 88.5683651,35.0724114 88.8367957,35.0051659 C89.3091673,34.9390229 89.7153959,34.3316091 89.8482332,33.9931771 L92.07064,33.9931771 L92.07064,43.1589513 L91.6682697,43.1589513 L90.3200537,43.1589513 C90.3200537,39.1854072 87.1529036,36.0160523 83.2427466,36.0160523 C81.4243637,36.0160523 79.6043272,36.7579569 78.2594184,38.1050705 C76.2370944,40.1962935 75.0222669,43.1589513 75.0222669,46.1238139 C75.0222669,49.093086 76.2370944,52.0546414 78.2594184,54.2131098 C79.6043272,55.4907732 81.4243637,56.2337802 83.2427466,56.3004745 L83.2427466,56.3004745 Z M113.704381,50.033971 L113.499337,50.033971 C113.164763,50.033971 112.827434,50.3040551 112.827434,50.6380776 C112.827434,50.7058742 112.827434,50.7758756 112.89523,50.8425698 L110.671721,50.8425698 L110.671721,45.1129275 L112.692392,45.1129275 C112.692392,47.0669036 114.243446,48.6207143 116.064034,48.6207143 C117.139961,48.6207143 118.084153,47.6754198 118.084153,46.5956344 C118.084153,46.1916105 117.882417,45.7881379 117.612333,45.5180537 L112.085529,40.7348083 C111.213543,39.994006 110.671721,38.8486288 110.671721,37.7015979 C110.671721,36.6229149 111.145195,35.5436806 111.883242,34.8039808 C112.963578,33.7247466 114.514082,33.0500874 116.064034,33.0500874 C117.07492,33.0500874 118.016357,33.3179668 118.826609,33.7247466 C118.894957,33.7936456 119.028345,33.7936456 119.096142,33.7936456 C119.29843,33.7936456 119.433472,33.7247466 119.568514,33.5919093 L121.454693,33.5919093 L121.454693,37.7015979 L119.498512,37.7015979 C119.498512,36.2866877 118.421483,35.2074534 117.07492,35.2074534 C115.996237,35.2074534 115.120944,36.0827466 115.120944,37.1630832 C115.120944,37.6349036 115.322681,38.0400299 115.592214,38.3090116 L121.117364,43.1589513 C121.992106,43.900856 122.46558,44.9773342 122.46558,46.1238139 C122.46558,48.8885937 120.307111,51.1093468 117.612333,51.1093468 C116.263566,51.1093468 114.851411,50.7058742 113.704381,50.033971 L113.704381,50.033971 Z M128.394202,51.1093468 C126.777556,51.1093468 125.430993,49.7649892 125.430993,48.1466891 L125.430993,35.2074534 L122.46558,35.2074534 L122.46558,33.2523749 C124.824682,32.7122066 126.64527,30.6920874 127.048191,28.2023525 L129.340599,28.2023525 L129.340599,33.1862318 L132.234909,33.1862318 L132.234909,35.2074534 L129.340599,35.2074534 L129.340599,46.1238139 C129.340599,46.9335151 130.013605,47.6065208 130.82055,47.6065208 C131.291268,47.6065208 131.766947,47.3391926 132.03648,47.0002094 L132.977916,48.0110958 C132.234909,49.8327858 130.347076,51.1093468 128.394202,51.1093468 L128.394202,51.1093468 Z M142.075894,42.6198854 L140.121918,43.5618728 L139.31387,44.0364492 C138.638108,44.4393707 138.232431,45.2474184 138.232431,46.0571196 C138.232431,47.0669036 139.044337,47.9444015 140.054121,47.9444015 C140.593738,47.8755025 141.064456,47.6754198 141.335643,47.4058868 L142.075894,46.8657185 L142.075894,42.6198854 Z M140.121918,41.0048924 L142.075894,40.3969275 L142.075894,36.6229149 C142.075894,35.814316 141.403991,35.1407592 140.593738,35.1407592 C140.390348,35.1407592 140.25696,35.1407592 140.121918,35.2074534 C139.516158,35.4080874 139.044337,35.952114 139.044337,36.6229149 C139.044337,36.6907115 139.109378,36.7579569 139.109378,36.8241 L139.109378,37.0958377 C139.109378,38.5118504 138.031797,39.5883286 136.686337,39.5883286 C135.338121,39.5883286 134.192193,38.5118504 134.192193,37.0958377 C134.192193,36.6229149 134.393929,36.0827466 134.730707,35.6103749 C136.07727,34.0609738 138.031797,33.1200888 140.121918,33.1200888 L142.075894,33.1200888 C144.232709,33.1200888 145.984949,34.9390229 145.984949,37.0958377 L145.984949,47.0669036 C145.984949,47.6065208 146.390075,48.0110958 146.928038,48.0110958 C147.198122,48.0110958 147.40041,47.9444015 147.59939,47.811013 L148.409092,48.8196947 L147.061978,50.1684619 C146.526219,50.7058742 145.783212,51.0448574 144.974062,51.0448574 C143.896481,51.0448574 142.884493,50.3729541 142.410467,49.3587606 C141.739667,49.9661743 140.997211,50.4396484 140.121918,50.7058742 C139.516158,50.9092641 138.839845,51.0448574 138.165186,51.0448574 L137.695019,51.0448574 C135.474265,51.0448574 133.720923,49.2242697 133.652575,47.0669036 C133.652575,44.6394534 135.203079,42.5531912 137.427139,41.8101842 L140.121918,41.0048924 Z M116.604754,21.1906372 L118.555974,20.5843258 L118.555974,16.8103132 C118.555974,16.0011631 117.882417,15.3287087 117.07492,15.3287087 C116.873184,15.3287087 116.735386,15.3287087 116.604754,15.3959541 C115.996237,15.5965881 115.525519,16.1362052 115.525519,16.8103132 C115.525519,16.8792122 115.592214,16.9453553 115.592214,17.0142543 L115.592214,17.2826849 C115.592214,18.6975951 114.514082,19.7784829 113.164763,19.7784829 C111.819303,19.7784829 110.671721,18.6975951 110.671721,17.2826849 C110.671721,16.8103132 110.873458,16.2723496 111.213543,15.7988756 C112.557901,14.2500257 114.514082,13.3758349 116.604754,13.3758349 L118.555974,13.3758349 C120.711686,13.3758349 122.46558,15.12587 122.46558,17.2826849 L122.46558,27.1887101 C122.46558,27.7939191 122.870155,28.2023525 123.408669,28.2023525 C123.679856,28.2023525 123.88049,28.1317999 124.082777,27.9984114 L124.824682,29.0081954 L123.544814,30.355309 C123.004094,30.8971309 122.261639,31.2333581 121.454693,31.2333581 C120.374908,31.2333581 119.366226,30.5581477 118.894957,29.5467101 C118.220298,30.1552262 117.411148,30.6264955 116.604754,30.8971309 C115.996237,31.0988672 115.322681,31.2333581 114.649124,31.2333581 L114.107853,31.2333581 C111.951589,31.2333581 110.133758,29.4105656 110.133758,27.2565067 C110.133758,24.8974043 111.617567,22.7405895 113.907219,22.0008896 L116.604754,21.1906372 Z M118.555974,22.8067325 L116.604754,23.7525783 L115.798359,24.2238475 C115.120944,24.626769 114.649124,25.4359191 114.649124,26.244518 C114.649124,27.2565067 115.525519,28.1317999 116.536957,28.1317999 C117.07492,28.0640032 117.478393,27.8639205 117.817376,27.5927339 L118.555974,27.053668 L118.555974,22.8067325 Z M78.7979331,19.3033553 C78.7273805,18.4969612 78.3922557,17.6867087 78.0549261,16.9453553 C77.7203525,16.3373903 77.1123875,15.937776 76.3715853,15.937776 C75.6296806,15.937776 75.0222669,16.3373903 74.6854885,17.0142543 C74.2814647,17.6867087 73.8790944,18.4969612 73.7423987,19.3033553 L76.3021351,19.3033553 L78.7979331,19.3033553 Z M76.3021351,12.9696063 L76.8428546,12.9696063 C77.92264,12.9696063 79.0658125,13.3758349 79.942208,13.9121449 C82.3680046,15.530445 83.8534675,18.3613679 83.8534675,21.258985 L76.3021351,21.258985 L73.404518,21.258985 C73.404518,23.6847816 74.5498952,25.9088419 76.3021351,27.4587942 C76.5060762,27.5927339 76.7083637,27.7939191 76.9095488,27.9295123 C77.3152262,28.1317999 77.7203525,28.3340874 78.1905194,28.3340874 C78.5934408,28.3340874 79.0658125,28.1317999 79.4031421,27.8639205 C81.020891,26.8513805 82.1662683,25.2336316 82.6375376,23.2807578 L84.1196933,24.4939317 C83.5800762,26.984769 82.0295727,29.2777283 79.942208,30.6920874 C79.0658125,31.2989499 77.92264,31.6362795 76.8428546,31.6362795 L76.3021351,31.6362795 C75.3595965,31.5023398 74.4843034,31.164459 73.8085418,30.6920874 C71.046518,28.8742557 69.3609724,25.6398602 69.3609724,22.2709738 C69.3609724,18.9654745 71.046518,15.7988756 73.8085418,13.9121449 C74.4843034,13.441978 75.3595965,13.1057508 76.3021351,12.9696063 L76.3021351,12.9696063 Z M31.2212318,15.937776 C30.5454703,15.937776 29.9391589,16.3373903 29.6690748,17.0142543 C29.2650509,17.6867087 28.8599247,18.4969612 28.6598419,19.3033553 L31.2212318,19.3033553 L33.7787634,19.3033553 C33.6453749,18.4969612 33.3774955,17.6867087 33.0390635,16.9453553 C32.7050411,16.3373903 32.0292795,15.937776 31.3524156,15.937776 L31.2212318,15.937776 Z M31.2212318,27.4587942 C31.422417,27.5927339 31.6925011,27.7939191 31.8942374,27.9295123 C32.2988125,28.1317999 32.7050411,28.3340874 33.1757592,28.3340874 C33.579783,28.3340874 33.9832557,28.1317999 34.3850748,27.8639205 C35.9366806,26.8513805 37.1498546,25.2336316 37.6222262,23.2807578 L39.1032795,24.4939317 C38.5642136,26.984769 37.0175684,29.2777283 34.8568952,30.6920874 C33.9832557,31.2989499 32.9045727,31.6362795 31.826992,31.6362795 C31.6224997,31.6362795 31.422417,31.6362795 31.2212318,31.5701365 C30.3426316,31.5023398 29.4634801,31.164459 28.7921281,30.6920874 C26.0312066,28.8742557 24.3462122,25.6398602 24.3462122,22.2709738 C24.3462122,18.9654745 26.0312066,15.7988756 28.725985,13.9121449 C29.4634801,13.441978 30.3426316,13.1057508 31.2212318,12.9696063 L31.826992,12.9696063 C32.9045727,12.9696063 33.9832557,13.3758349 34.8568952,13.9121449 C37.2848966,15.530445 38.8342978,18.3613679 38.8342978,21.3273328 L31.2212318,21.3273328 L28.3919626,21.258985 C28.3919626,23.6847816 29.4634801,25.9088419 31.2212318,27.4587942 L31.2212318,27.4587942 Z M101.846584,32.8494534 C103.461026,32.8494534 105.147122,33.456316 106.360296,34.6027957 C108.38262,36.4878728 109.726978,39.1854072 109.726978,42.0146764 C109.726978,44.91064 108.449315,47.6065208 106.360296,49.494905 C105.147122,50.5735881 103.528271,51.2493496 101.846584,51.2493496 C100.157731,51.2493496 98.5410846,50.5735881 97.2617676,49.494905 C95.2399948,47.6065208 94.0268209,44.91064 94.0268209,42.0146764 C94.0268209,39.1854072 95.2399948,36.4878728 97.3306666,34.6027957 C98.5410846,33.522459 100.157731,32.8494534 101.846584,32.8494534 L101.846584,32.8494534 Z M103.192595,35.7459682 C102.790776,35.4080874 102.318956,35.1407592 101.846584,35.1407592 C101.374212,35.2074534 100.83239,35.4080874 100.49451,35.7459682 C98.8800677,37.3653707 97.9380804,39.7233707 97.9380804,42.0146764 C97.9380804,44.3715741 98.8800677,46.7301252 100.49451,48.3478742 C100.83239,48.7552052 101.374212,48.8885937 101.846584,48.9563903 C102.383445,48.9563903 102.790776,48.7552052 103.192595,48.3478742 C104.809242,46.7301252 105.752883,44.3715741 105.752883,42.0813707 C105.752883,39.6544717 104.809242,37.4326161 103.192595,35.7459682 L103.192595,35.7459682 Z" id="Fill-6" fill="#FEFEFE"></path>
                    </g>
                </g>
            </g>
        </g>
    </g>
</svg>