<?xml version="1.0" encoding="UTF-8"?>
<svg width="360px" height="145px" viewBox="0 0 360 145" version="1.1" xmlns="http://www.w3.org/2000/svg" xmlns:xlink="http://www.w3.org/1999/xlink">
    <!-- Generator: Sketch 47.1 (45422) - http://www.bohemiancoding.com/sketch -->
    <title>bg_img - splash</title>
    <desc>Created with Sketch.</desc>
    <defs></defs>
    <g id="Page-1" stroke="none" stroke-width="1" fill="none" fill-rule="evenodd" opacity="0.2">
        <g id="Login-Copy" transform="translate(0.000000, -24.000000)" stroke="#FFFFFF">
            <g id="Group" transform="translate(0.000000, 24.000000)">
                <g transform="translate(-17.000000, -71.000000)" id="bg_img---splash">
                    <g>
                        <rect id="Rectangle-20" x="157.089762" y="48.5049088" width="39.2724404" height="48.5049088"></rect>
                        <polygon id="Rectangle-20-Copy" points="157.089762 97.0098177 196.362202 97.0098177 157.089762 145.514727"></polygon>
                        <polygon id="Rectangle-20-Copy-12" points="235.634642 97.0098177 274.907083 97.0098177 235.634642 145.514727"></polygon>
                        <rect id="Rectangle-20-Copy-4" x="196.362202" y="48.5049088" width="39.2724404" height="48.5049088"></rect>
                        <polygon id="Rectangle-20-Copy-5" points="196.362202 97.0098177 235.634642 97.0098177 235.634642 145.514727"></polygon>
                        <polygon id="Rectangle-20-Copy-10" points="117.817321 97.0098177 157.089762 97.0098177 157.089762 145.514727"></polygon>
                        <polygon id="Rectangle-20-Copy-2" points="157.089762 48.5049088 196.362202 97.0098177 157.089762 97.0098177"></polygon>
                        <polygon id="Rectangle-20-Copy-13" points="235.634642 48.5049088 274.907083 97.0098177 235.634642 97.0098177"></polygon>
                        <polygon id="Rectangle-20-Copy-6" transform="translate(176.725982, 121.262272) scale(-1, 1) translate(-176.725982, -121.262272) " points="157.089762 97.0098177 196.362202 145.514727 157.089762 145.514727"></polygon>
                        <polygon id="Rectangle-20-Copy-3" transform="translate(215.998422, 72.757363) scale(-1, 1) translate(-215.998422, -72.757363) " points="196.362202 48.5049088 235.634642 97.0098177 196.362202 97.0098177"></polygon>
                        <polygon id="Rectangle-20-Copy-11" transform="translate(137.453541, 72.757363) scale(-1, 1) translate(-137.453541, -72.757363) " points="117.817321 48.5049088 157.089762 97.0098177 117.817321 97.0098177"></polygon>
                        <polygon id="Rectangle-20-Copy-7" points="196.362202 97.0098177 235.634642 145.514727 196.362202 145.514727"></polygon>
                        <rect id="Rectangle-20" x="39.2724404" y="97.0098177" width="39.2724404" height="48.5049088"></rect>
                        <polygon id="Rectangle-20-Copy" points="39.2724404 145.514727 78.5448808 145.514727 39.2724404 194.019635"></polygon>
                        <polygon id="Rectangle-20-Copy-12" points="117.817321 145.514727 157.089762 145.514727 117.817321 194.019635"></polygon>
                        <rect id="Rectangle-20-Copy-4" x="78.5448808" y="97.0098177" width="39.2724404" height="48.5049088"></rect>
                        <polygon id="Rectangle-20-Copy-5" points="78.5448808 145.514727 117.817321 145.514727 117.817321 194.019635"></polygon>
                        <polygon id="Rectangle-20-Copy-10" points="0 145.514727 39.2724404 145.514727 39.2724404 194.019635"></polygon>
                        <polygon id="Rectangle-20-Copy-2" points="39.2724404 97.0098177 78.5448808 145.514727 39.2724404 145.514727"></polygon>
                        <polygon id="Rectangle-20-Copy-13" points="117.817321 97.0098177 157.089762 145.514727 117.817321 145.514727"></polygon>
                        <polygon id="Rectangle-20-Copy-6" transform="translate(58.908661, 169.767181) scale(-1, 1) translate(-58.908661, -169.767181) " points="39.2724404 145.514727 78.5448808 194.019635 39.2724404 194.019635"></polygon>
                        <polygon id="Rectangle-20-Copy-8" transform="translate(58.908661, 72.757363) scale(-1, 1) translate(-58.908661, -72.757363) " points="39.2724404 48.5049088 78.5448808 97.0098177 39.2724404 97.0098177"></polygon>
                        <polygon id="Rectangle-20-Copy-3" transform="translate(98.181101, 121.262272) scale(-1, 1) translate(-98.181101, -121.262272) " points="78.5448808 97.0098177 117.817321 145.514727 78.5448808 145.514727"></polygon>
                        <polygon id="Rectangle-20-Copy-11" transform="translate(19.636220, 121.262272) scale(-1, 1) translate(-19.636220, -121.262272) " points="0 97.0098177 39.2724404 145.514727 0 145.514727"></polygon>
                        <polygon id="Rectangle-20-Copy-7" points="78.5448808 145.514727 117.817321 194.019635 78.5448808 194.019635"></polygon>
                        <polygon id="Rectangle-20-Copy-9" points="78.5448808 48.5049088 117.817321 97.0098177 78.5448808 97.0098177"></polygon>
                        <rect id="Rectangle-20" x="274.907083" y="97.0098177" width="39.2724404" height="48.5049088"></rect>
                        <polygon id="Rectangle-20-Copy" points="274.907083 145.514727 314.179523 145.514727 274.907083 194.019635"></polygon>
                        <polygon id="Rectangle-20-Copy-12" points="353.451964 145.514727 392.724404 145.514727 353.451964 194.019635"></polygon>
                        <rect id="Rectangle-20-Copy-4" x="314.179523" y="97.0098177" width="39.2724404" height="48.5049088"></rect>
                        <polygon id="Rectangle-20-Copy-5" points="314.179523 145.514727 353.451964 145.514727 353.451964 194.019635"></polygon>
                        <polygon id="Rectangle-20-Copy-10" points="235.634642 145.514727 274.907083 145.514727 274.907083 194.019635"></polygon>
                        <polygon id="Rectangle-20-Copy-2" points="274.907083 97.0098177 314.179523 145.514727 274.907083 145.514727"></polygon>
                        <polygon id="Rectangle-20-Copy-13" points="353.451964 97.0098177 392.724404 145.514727 353.451964 145.514727"></polygon>
                        <polygon id="Rectangle-20-Copy-6" transform="translate(294.543303, 169.767181) scale(-1, 1) translate(-294.543303, -169.767181) " points="274.907083 145.514727 314.179523 194.019635 274.907083 194.019635"></polygon>
                        <polygon id="Rectangle-20-Copy-8" transform="translate(294.543303, 72.757363) scale(-1, 1) translate(-294.543303, -72.757363) " points="274.907083 48.5049088 314.179523 97.0098177 274.907083 97.0098177"></polygon>
                        <polygon id="Rectangle-20-Copy-3" transform="translate(333.815743, 121.262272) scale(-1, 1) translate(-333.815743, -121.262272) " points="314.179523 97.0098177 353.451964 145.514727 314.179523 145.514727"></polygon>
                        <polygon id="Rectangle-20-Copy-11" transform="translate(255.270863, 121.262272) scale(-1, 1) translate(-255.270863, -121.262272) " points="235.634642 97.0098177 274.907083 145.514727 235.634642 145.514727"></polygon>
                        <polygon id="Rectangle-20-Copy-7" points="314.179523 145.514727 353.451964 194.019635 314.179523 194.019635"></polygon>
                        <polygon id="Rectangle-20-Copy-9" points="314.179523 48.5049088 353.451964 97.0098177 314.179523 97.0098177"></polygon>
                        <rect id="Rectangle-20" x="157.089762" y="145.514727" width="39.2724404" height="48.5049088"></rect>
                        <polygon id="Rectangle-20-Copy" points="157.089762 194.019635 196.362202 194.019635 157.089762 242.524544"></polygon>
                        <polygon id="Rectangle-20-Copy-12" points="235.634642 194.019635 274.907083 194.019635 235.634642 242.524544"></polygon>
                        <rect id="Rectangle-20-Copy-4" x="196.362202" y="145.514727" width="39.2724404" height="48.5049088"></rect>
                        <polygon id="Rectangle-20-Copy-5" points="196.362202 194.019635 235.634642 194.019635 235.634642 242.524544"></polygon>
                        <polygon id="Rectangle-20-Copy-10" points="117.817321 194.019635 157.089762 194.019635 157.089762 242.524544"></polygon>
                        <polygon id="Rectangle-20-Copy-2" points="157.089762 145.514727 196.362202 194.019635 157.089762 194.019635"></polygon>
                        <polygon id="Rectangle-20-Copy-13" points="235.634642 145.514727 274.907083 194.019635 235.634642 194.019635"></polygon>
                        <polygon id="Rectangle-20-Copy-6" transform="translate(176.725982, 218.272090) scale(-1, 1) translate(-176.725982, -218.272090) " points="157.089762 194.019635 196.362202 242.524544 157.089762 242.524544"></polygon>
                        <polygon id="Rectangle-20-Copy-8" transform="translate(176.725982, 121.262272) scale(-1, 1) translate(-176.725982, -121.262272) " points="157.089762 97.0098177 196.362202 145.514727 157.089762 145.514727"></polygon>
                        <polygon id="Rectangle-20-Copy-3" transform="translate(215.998422, 169.767181) scale(-1, 1) translate(-215.998422, -169.767181) " points="196.362202 145.514727 235.634642 194.019635 196.362202 194.019635"></polygon>
                        <polygon id="Rectangle-20-Copy-11" transform="translate(137.453541, 169.767181) scale(-1, 1) translate(-137.453541, -169.767181) " points="117.817321 145.514727 157.089762 194.019635 117.817321 194.019635"></polygon>
                        <polygon id="Rectangle-20-Copy-7" points="196.362202 194.019635 235.634642 242.524544 196.362202 242.524544"></polygon>
                        <polygon id="Rectangle-20-Copy-9" points="196.362202 97.0098177 235.634642 145.514727 196.362202 145.514727"></polygon>
                        <rect id="Rectangle-20" x="39.2724404" y="194.019635" width="39.2724404" height="48.5049088"></rect>
                        <rect id="Rectangle-20-Copy-4" x="78.5448808" y="194.019635" width="39.2724404" height="48.5049088"></rect>
                        <polygon id="Rectangle-20-Copy-2" points="39.2724404 194.019635 78.5448808 242.524544 39.2724404 242.524544"></polygon>
                        <polygon id="Rectangle-20-Copy-13" points="117.817321 194.019635 157.089762 242.524544 117.817321 242.524544"></polygon>
                        <polygon id="Rectangle-20-Copy-8" transform="translate(58.908661, 169.767181) scale(-1, 1) translate(-58.908661, -169.767181) " points="39.2724404 145.514727 78.5448808 194.019635 39.2724404 194.019635"></polygon>
                        <polygon id="Rectangle-20-Copy-3" transform="translate(98.181101, 218.272090) scale(-1, 1) translate(-98.181101, -218.272090) " points="78.5448808 194.019635 117.817321 242.524544 78.5448808 242.524544"></polygon>
                        <polygon id="Rectangle-20-Copy-11" transform="translate(19.636220, 218.272090) scale(-1, 1) translate(-19.636220, -218.272090) " points="0 194.019635 39.2724404 242.524544 0 242.524544"></polygon>
                        <polygon id="Rectangle-20-Copy-9" points="78.5448808 145.514727 117.817321 194.019635 78.5448808 194.019635"></polygon>
                        <rect id="Rectangle-20" x="274.907083" y="194.019635" width="39.2724404" height="48.5049088"></rect>
                        <rect id="Rectangle-20-Copy-4" x="314.179523" y="194.019635" width="39.2724404" height="48.5049088"></rect>
                        <polygon id="Rectangle-20-Copy-2" points="274.907083 194.019635 314.179523 242.524544 274.907083 242.524544"></polygon>
                        <polygon id="Rectangle-20-Copy-13" points="353.451964 194.019635 392.724404 242.524544 353.451964 242.524544"></polygon>
                        <polygon id="Rectangle-20-Copy-8" transform="translate(294.543303, 169.767181) scale(-1, 1) translate(-294.543303, -169.767181) " points="274.907083 145.514727 314.179523 194.019635 274.907083 194.019635"></polygon>
                        <polygon id="Rectangle-20-Copy-3" transform="translate(333.815743, 218.272090) scale(-1, 1) translate(-333.815743, -218.272090) " points="314.179523 194.019635 353.451964 242.524544 314.179523 242.524544"></polygon>
                        <polygon id="Rectangle-20-Copy-11" transform="translate(255.270863, 218.272090) scale(-1, 1) translate(-255.270863, -218.272090) " points="235.634642 194.019635 274.907083 242.524544 235.634642 242.524544"></polygon>
                        <polygon id="Rectangle-20-Copy-9" points="314.179523 145.514727 353.451964 194.019635 314.179523 194.019635"></polygon>
                    </g>
                </g>
            </g>
        </g>
    </g>
</svg>