<?xml version="1.0" encoding="UTF-8"?>
<svg width="188px" height="188px" viewBox="0 0 188 188" version="1.1" xmlns="http://www.w3.org/2000/svg" xmlns:xlink="http://www.w3.org/1999/xlink">
    <!-- Generator: Sketch 47.1 (45422) - http://www.bohemiancoding.com/sketch -->
    <title>parachute</title>
    <desc>Created with Sketch.</desc>
    <defs></defs>
    <g id="Page-1" stroke="none" stroke-width="1" fill="none" fill-rule="evenodd">
        <g id="Catálogo" transform="translate(-86.000000, -268.000000)" fill-rule="nonzero">
            <g id="sem-resultados" transform="translate(47.000000, 272.000000)">
                <g id="parachute" transform="translate(43.000000, 0.000000)">
                    <circle id="Oval" fill="#F4F4F4" cx="90" cy="90" r="90"></circle>
                    <path d="M96.9967969,179.731055 C141.210703,176.331094 176.475586,140.983945 179.749687,96.7345313 L123.181875,39.9744141 L68.7280078,56.6666016 L61.61625,62.1210938 L44.0676562,71.7391406 L67.4114062,108.219727 L68.7276562,111.960352 L89.5271484,132.759844 L66.2056732,156.613541 L96.9967969,179.731055 Z" id="Shape" fill-opacity="0.15" fill="#000000"></path>
                    <path d="M72.2404687,118.897734 C71.47125,118.897734 70.7224219,118.505742 70.2980859,117.798398 L43.655625,73.3946484 C43.0126172,72.3237891 43.3599609,70.9333594 44.431875,70.2910547 C45.5020312,69.6473438 46.8931641,69.9953906 47.5354687,71.0673047 L74.1779297,115.471055 C74.8209375,116.541914 74.4735937,117.932344 73.4016797,118.574648 C73.0381641,118.79332 72.6363281,118.897734 72.2404687,118.897734 Z" id="Shape" fill="#324A5E"></path>
                    <path d="M107.759531,118.897734 C107.36332,118.897734 106.961836,118.79332 106.597617,118.574648 C105.526055,117.931641 105.178359,116.541914 105.821367,115.471055 L132.463828,71.0673047 C133.106836,69.9957422 134.497266,69.6480469 135.567422,70.2910547 C136.638984,70.9340625 136.98668,72.3237891 136.343672,73.3946484 L109.701211,117.798047 C109.277578,118.505391 108.528398,118.897734 107.759531,118.897734 Z" id="Shape" fill="#2B3B4E"></path>
                    <path d="M79.3430859,118.897734 C78.4163672,118.897734 77.54625,118.323633 77.2140234,117.400781 L61.2284766,72.9970312 C60.8055469,71.8214062 61.4151563,70.5248437 62.5914844,70.1019141 C63.7653516,69.6800391 65.0636719,70.2875391 65.4866016,71.4649219 L81.4721484,115.868672 C81.8950781,117.044297 81.2854688,118.340859 80.1091406,118.763789 C79.8563672,118.854492 79.5976172,118.897734 79.3430859,118.897734 Z" id="Shape" fill="#324A5E"></path>
                    <path d="M100.656914,118.897734 C100.402383,118.897734 100.143633,118.854844 99.8908594,118.763789 C98.7152344,118.340859 98.1049219,117.044297 98.5278516,115.868672 L114.513398,71.4649219 C114.936328,70.2892969 116.234648,69.6800391 117.408516,70.1019141 C118.584844,70.5248437 119.194453,71.8214062 118.771523,72.9970312 L102.785977,117.400781 C102.454102,118.32293 101.583633,118.897734 100.656914,118.897734 Z" id="Shape" fill="#2B3B4E"></path>
                    <path d="M90,118.101094 C88.7501953,118.101094 87.7376953,117.087891 87.7376953,115.838789 L87.7376953,71.4350391 C87.7376953,70.1852344 88.7508984,69.1727344 90,69.1727344 C91.2498047,69.1727344 92.2623047,70.1859375 92.2623047,71.4350391 L92.2623047,115.838789 C92.2623047,117.087891 91.2498047,118.101094 90,118.101094 Z" id="Shape" fill="#324A5E"></path>
                    <path d="M90,69.1720313 C89.9307422,69.1720313 89.8653516,69.1864453 89.7982031,69.1920703 L89.7982031,118.080703 C89.8653516,118.08668 89.9310938,118.100742 90,118.100742 C91.2498047,118.100742 92.2623047,117.087539 92.2623047,115.838437 L92.2623047,71.4346875 C92.2623047,70.1848828 91.2498047,69.1720313 90,69.1720313 Z" id="Shape" fill="#2B3B4E"></path>
                    <path d="M43.3332422,72.7491797 C43.3332422,46.9757812 64.2266016,26.0824219 90,26.0824219 C115.773398,26.0824219 136.666758,46.9757812 136.666758,72.7491797 L43.3332422,72.7491797 Z" id="Shape" fill="#F1543F"></path>
                    <path d="M90,26.083125 C89.9321484,26.083125 89.8660547,26.0880469 89.7982031,26.0880469 L89.7982031,72.7491797 L136.666758,72.7491797 C136.666758,46.9764844 115.773398,26.083125 90,26.083125 Z" id="Shape" fill="#C0392B"></path>
                    <path d="M62.0001563,72.7491797 C62.0001563,46.9757812 74.5358203,26.0824219 90,26.0824219 C105.46418,26.0824219 117.999844,46.9757812 117.999844,72.7491797 L62.0001563,72.7491797 Z" id="Shape" fill="#FC6F58"></path>
                    <g id="Group" transform="translate(80.507812, 26.015625)" fill="#F1543F">
                        <path d="M9.4921875,0.0675 C9.42433594,0.0675 9.35824219,0.075234375 9.29039062,0.0759375 L9.29039062,46.7335547 L37.4920312,46.7335547 C37.4920312,20.9608594 24.9563672,0.0675 9.4921875,0.0675 Z" id="Shape"></path>
                        <path d="M0.15890625,46.7335547 C0.15890625,20.9601563 4.33757812,0.066796875 9.4921875,0.066796875 C14.6467969,0.066796875 18.8254688,20.9601563 18.8254688,46.7335547 L0.15890625,46.7335547 Z" id="Shape"></path>
                    </g>
                    <path d="M90,26.083125 C89.9321484,26.083125 89.8653516,26.1014063 89.7982031,26.1084375 L89.7982031,72.7495313 L99.3332812,72.7495313 C99.3332812,46.9764844 95.1546094,26.083125 90,26.083125 Z" id="Shape" fill="#C0392B"></path>
                    <g id="box3" transform="translate(64.687500, 108.281250)">
                        <path d="M48.3490095,46.9143721 C48.3490095,48.3128877 47.215115,49.447125 45.8162566,49.447125 L3.87724093,49.447125 C2.47324093,49.447125 1.34208859,48.3132305 1.34208859,46.9143721 L1.34208859,4.97535645 C1.34208859,3.57135645 2.47598312,2.4402041 3.87724093,2.4402041 L45.8162566,2.4402041 C47.2147722,2.4402041 48.3490095,3.57409863 48.3490095,4.97535645 L48.3490095,46.9143721 Z" id="Shape" fill="#C17E52"></path>
                        <path d="M48.3490095,4.97535645 L48.3490095,46.9143721 C48.3490095,48.3128877 47.215115,49.447125 45.8162566,49.447125 L3.87724093,49.447125" id="Shape" fill="#B56841"></path>
                        <path d="M1.34208859,4.97535645 C1.34208859,3.57135645 2.47598312,2.4402041 3.87724093,2.4402041 L45.8162566,2.4402041 C47.2147722,2.4402041 48.3490095,3.57409863 48.3490095,4.97535645 L48.3490095,46.9143721 C48.3490095,48.3128877 47.215115,49.447125 45.8162566,49.447125" id="Shape" fill="#A86743"></path>
                    </g>
                    <circle id="Oval-Copy-4" stroke="#D9D9D9" stroke-width="8" cx="90" cy="90" r="90"></circle>
                </g>
            </g>
        </g>
    </g>
</svg>