<?xml version="1.0" encoding="UTF-8"?>
<svg width="12px" height="12px" viewBox="0 0 12 12" version="1.1" xmlns="http://www.w3.org/2000/svg" xmlns:xlink="http://www.w3.org/1999/xlink">
    <!-- Generator: Sketch 47.1 (45422) - http://www.bohemiancoding.com/sketch -->
    <title>ic_person_black_24px@1x</title>
    <desc>Created with Sketch.</desc>
    <defs></defs>
    <g id="Page-1" stroke="none" stroke-width="1" fill="none" fill-rule="evenodd" opacity="0.87">
        <g id="home---Pedidos-em-aberto" transform="translate(-19.000000, -210.000000)">
            <g id="pedido-1" transform="translate(0.000000, 128.000000)">
                <g id="ic_person_black_24px" transform="translate(16.000000, 79.000000)">
                    <path d="M9,9 C10.6575,9 12,7.6575 12,6 C12,4.3425 10.6575,3 9,3 C7.3425,3 6,4.3425 6,6 C6,7.6575 7.3425,9 9,9 Z M9,10.5 C6.9975,10.5 3,11.505 3,13.5 L3,15 L15,15 L15,13.5 C15,11.505 11.0025,10.5 9,10.5 Z" id="Shape" fill="#212121" fill-rule="nonzero"></path>
                    <polygon id="Shape" points="0 0 18 0 18 18 0 18"></polygon>
                </g>
            </g>
        </g>
    </g>
</svg>