<?xml version="1.0" encoding="UTF-8"?>
<svg width="14px" height="14px" viewBox="0 0 14 14" version="1.1" xmlns="http://www.w3.org/2000/svg" xmlns:xlink="http://www.w3.org/1999/xlink">
    <!-- Generator: Sketch 47.1 (45422) - http://www.bohemiancoding.com/sketch -->
    <title>ic_retirada@1x</title>
    <desc>Created with Sketch.</desc>
    <defs></defs>
    <g id="Page-1" stroke="none" stroke-width="1" fill="none" fill-rule="evenodd" opacity="0.87">
        <g id="home---Pedidos-em-aberto" transform="translate(-18.000000, -231.000000)">
            <g id="pedido-1" transform="translate(0.000000, 128.000000)">
                <g id="ic_retirada" transform="translate(16.000000, 101.000000)">
                    <rect id="Rectangle-3" x="0" y="0" width="18" height="18"></rect>
                    <g id="001-transport-3" transform="translate(2.000000, 2.000000)" fill-rule="nonzero" fill="#212121">
                        <path d="M13.9324848,8.22915152 C13.8007273,7.8760303 13.4076061,7.69663636 13.0546364,7.82836364 L7.43754545,9.92424242 C7.1089697,9.62718182 6.68581818,9.43957576 6.23209091,9.40633333 L2.97257576,0.452 C2.91036364,0.281060606 2.78245455,0.142030303 2.61724242,0.0658181818 C2.45206061,-0.0103939394 2.26327273,-0.0174848485 2.09281818,0.0460909091 L0.444,0.66130303 C0.0909393939,0.793060606 -0.0885151515,1.18609091 0.0432424242,1.53918182 C0.175,1.89227273 0.568,2.07169697 0.921121212,1.9399697 L1.92545455,1.56521212 L4.91481818,9.77733333 C4.20490909,10.2840606 3.87075758,11.2322727 4.20115152,12.1176667 C4.58290909,13.1408485 5.73609091,13.6932424 6.79060606,13.2998485 C7.70927273,12.9570606 8.20533333,12.0332121 8.08124242,11.140697 L13.5317273,9.107 C13.8848182,8.97527273 14.0642424,8.58221212 13.9324848,8.22915152 Z M6.31351515,12.0212121 C5.96987879,12.1494242 5.60139394,11.9665758 5.47975758,11.6405758 C5.35451515,11.3050303 5.52475758,10.9320606 5.86039394,10.8068485 C6.20448485,10.6784848 6.57266667,10.8619394 6.69412121,11.1874848 C6.81936364,11.5230606 6.64912121,11.896 6.31351515,12.0212121 Z" id="Shape"></path>
                        <path d="M6.93357576,8.08366667 C7.08248485,8.48272727 7.52669697,8.68554545 7.92575758,8.53663636 L12.7657879,6.73069697 C13.1648485,6.58178788 13.3676667,6.13757576 13.2187576,5.73851515 L11.6353636,1.49484848 C11.4864545,1.09578788 11.0422424,0.892969697 10.6431818,1.04187879 L5.80315152,2.84781818 C5.40409091,2.99672727 5.20127273,3.44093939 5.35018182,3.84 L6.93357576,8.08366667 Z" id="Shape"></path>
                    </g>
                </g>
            </g>
        </g>
    </g>
</svg>