<?xml version="1.0" encoding="UTF-8"?>
<svg width="14px" height="13px" viewBox="0 0 14 13" version="1.1" xmlns="http://www.w3.org/2000/svg" xmlns:xlink="http://www.w3.org/1999/xlink">
    <!-- Generator: Sketch 47.1 (45422) - http://www.bohemiancoding.com/sketch -->
    <title>shopping cart@1x</title>
    <desc>Created with Sketch.</desc>
    <defs></defs>
    <g id="Page-1" stroke="none" stroke-width="1" fill="none" fill-rule="evenodd" opacity="0.87">
        <g id="home---Pedidos-em-aberto" transform="translate(-18.000000, -188.000000)">
            <g id="pedido-1" transform="translate(0.000000, 128.000000)">
                <g id="shopping-cart" transform="translate(16.000000, 57.000000)">
                    <rect id="Rectangle" x="0" y="0" width="18" height="18"></rect>
                    <path d="M12.3154545,7.44181818 L9.52818182,3.26727273 C9.40727273,3.08909091 9.20363636,3 9,3 C8.79636364,3 8.59272727,3.08909091 8.47181818,3.27363636 L5.68454545,7.44181818 L2.63636364,7.44181818 C2.28636364,7.44181818 2,7.72818182 2,8.07818182 C2,8.13545455 2.00636364,8.19272727 2.02545455,8.25 L3.64181818,14.1490909 C3.78818182,14.6836364 4.27818182,15.0781818 4.86363636,15.0781818 L13.1363636,15.0781818 C13.7218182,15.0781818 14.2118182,14.6836364 14.3645455,14.1490909 L15.9809091,8.25 L16,8.07818182 C16,7.72818182 15.7136364,7.44181818 15.3636364,7.44181818 L12.3154545,7.44181818 Z M7.09090909,7.44181818 L9,4.64181818 L10.9090909,7.44181818 L7.09090909,7.44181818 Z M9,12.5327273 C8.3,12.5327273 7.72727273,11.96 7.72727273,11.26 C7.72727273,10.56 8.3,9.98727273 9,9.98727273 C9.7,9.98727273 10.2727273,10.56 10.2727273,11.26 C10.2727273,11.96 9.7,12.5327273 9,12.5327273 Z" id="Shape" fill="#212121" fill-rule="nonzero"></path>
                </g>
            </g>
        </g>
    </g>
</svg>