<?xml version="1.0"?>
<svg xmlns="http://www.w3.org/2000/svg" id="Layer_1" enable-background="new 0 0 256 256" height="512px" viewBox="0 0 256 256" width="512px" class=""><g><g><g><path d="m176.427 123.09c-.43 0-.866-.056-1.301-.172-2.674-.716-4.261-3.465-3.544-6.139l19.6-73.151c1.612-6.016 7.087-10.218 13.315-10.218h35.485c2.768 0 5.013 2.244 5.013 5.013s-2.245 5.013-5.013 5.013h-35.485c-1.699 0-3.192 1.146-3.632 2.787l-19.6 73.15c-.6 2.239-2.626 3.717-4.838 3.717z" fill="#e0ebfc" data-original="#E0EBFC" class="" data-old_color="#e0ebfc" style="fill:#CCCCCC"/></g><g><path d="m176.427 125.089c-.613 0-1.226-.081-1.819-.24-1.809-.484-3.321-1.645-4.258-3.267s-1.186-3.512-.7-5.322l19.601-73.15c1.845-6.889 8.115-11.7 15.247-11.7h35.485c3.867 0 7.013 3.146 7.013 7.013s-3.146 7.013-7.013 7.013h-35.485c-.795 0-1.495.537-1.701 1.306l-19.6 73.149c-.82 3.061-3.604 5.198-6.77 5.198zm28.07-89.679c-5.325 0-10.006 3.592-11.384 8.735l-19.601 73.151c-.208.777-.102 1.589.301 2.286s1.053 1.195 1.83 1.403c1.578.425 3.269-.559 3.689-2.129l19.6-73.151c.675-2.514 2.963-4.27 5.564-4.27h35.485c1.661 0 3.013-1.352 3.013-3.013 0-1.662-1.352-3.013-3.013-3.013h-35.484z" fill="#3762cc" data-original="#3762CC" class="" data-old_color="#3762cc" style="fill:#6C6D6D"/></g><g><path d="m163.446 207.381h-133.943c-2.768 0-5.013-2.244-5.013-5.013s2.245-5.013 5.013-5.013h133.943c.55 0 .868-.299 1.038-.55s.33-.657.127-1.166l-7.847-19.727c-1.023-2.572.233-5.487 2.805-6.511 2.574-1.022 5.486.232 6.511 2.805l7.847 19.728c1.383 3.478.955 7.403-1.147 10.501-2.101 3.096-5.591 4.946-9.334 4.946z" fill="#e0ebfc" data-original="#E0EBFC" class="" data-old_color="#e0ebfc" style="fill:#CCCCCC"/></g><g><path d="m163.446 209.38h-133.943c-3.867 0-7.013-3.146-7.013-7.013s3.146-7.013 7.013-7.013h132.844l-7.441-18.705c-1.429-3.594.332-7.68 3.925-9.108 3.594-1.426 7.679.333 9.108 3.924l7.847 19.728c1.628 4.096 1.124 8.717-1.35 12.363-2.475 3.647-6.582 5.824-10.99 5.824zm-133.943-10.025c-1.661 0-3.013 1.352-3.013 3.013s1.352 3.013 3.013 3.013h133.943c3.079 0 5.95-1.521 7.679-4.07 1.729-2.547 2.081-5.776.943-8.639l-7.847-19.727c-.615-1.542-2.367-2.303-3.914-1.686-1.543.613-2.299 2.369-1.686 3.913l7.848 19.727c.405 1.018.285 2.122-.33 3.028-.618.909-1.6 1.428-2.693 1.428z" fill="#3762cc" data-original="#3762CC" class="" data-old_color="#3762cc" style="fill:#6C6D6D"/></g><g><circle cx="63.689" cy="206.368" fill="#4671c6" r="19.041" data-original="#4671C6" class="" data-old_color="#4671c6" style="fill:#6D6D6D"/></g><g><circle cx="63.689" cy="206.368" fill="#a4c9ff" r="9.406" data-original="#A4C9FF" class="active-path" data-old_color="#a4c9ff" style="fill:#BCBCBC"/></g><g><circle cx="133.869" cy="206.368" fill="#4671c6" r="19.041" data-original="#4671C6" class="" data-old_color="#4671c6" style="fill:#6D6D6D"/></g><g><circle cx="133.869" cy="206.368" fill="#a4c9ff" r="9.406" data-original="#A4C9FF" class="active-path" data-old_color="#a4c9ff" style="fill:#BCBCBC"/></g><g><path d="m190.856 68.775c-.773-.434-1.666-.605-2.552-.605h-175.131c-.845 0-1.698.148-2.447.539-2.037 1.063-3.031 3.244-2.661 5.344l16.118 91.405c.399 2.263 2.286 3.965 4.58 4.129l132.302 9.471c.12.009.241.013.36.013 2.252 0 4.249-1.512 4.839-3.716l27.03-100.876c.577-2.155-.327-4.519-2.438-5.704zm-72.253 45.824h-37.839c-1.384 0-2.506-1.122-2.506-2.506v-29.127c0-1.384 1.122-2.506 2.506-2.506h37.839c1.384 0 2.506 1.122 2.506 2.506v29.127c0 1.384-1.122 2.506-2.506 2.506zm-52.635-31.633v29.127c0 1.384-1.122 2.506-2.506 2.506h-32.29c-1.216 0-2.257-.873-2.468-2.071l-5.136-29.127c-.271-1.535.91-2.942 2.468-2.942h37.426c1.384 0 2.506 1.122 2.506 2.507zm-31.745 43.923h29.238c1.384 0 2.506 1.122 2.506 2.506v28.052c0 1.455-1.234 2.604-2.685 2.5l-24.602-1.761c-1.146-.082-2.09-.933-2.289-2.065l-4.636-26.291c-.271-1.534.91-2.941 2.468-2.941zm46.541 0h37.839c1.384 0 2.506 1.122 2.506 2.506v31.999c0 1.455-1.234 2.604-2.685 2.5l-37.839-2.709c-1.311-.094-2.327-1.185-2.327-2.5v-29.291c0-1.383 1.122-2.505 2.506-2.505zm71.963 39.462-17-1.217c-1.311-.094-2.327-1.185-2.327-2.5v-33.238c0-1.384 1.122-2.506 2.506-2.506h26.892c1.315 0 2.272 1.247 1.932 2.518l-9.403 35.093c-.311 1.159-1.402 1.935-2.6 1.85zm14.047-51.752h-30.868c-1.384 0-2.506-1.122-2.506-2.506v-29.127c0-1.384 1.122-2.506 2.506-2.506h38.673c1.648 0 2.848 1.563 2.421 3.155l-7.805 29.127c-.294 1.095-1.286 1.857-2.421 1.857z" fill="#a4c9ff" data-original="#A4C9FF" class="active-path" data-old_color="#a4c9ff" style="fill:#BCBCBC"/></g><g><path d="m245.505 45.943h-35.403c-1.384 0-2.506-1.122-2.506-2.506v-10.339c0-1.384 1.122-2.506 2.506-2.506h35.403c1.384 0 2.506 1.122 2.506 2.506v10.339c0 1.384-1.122 2.506-2.506 2.506z" fill="#4671c6" data-original="#4671C6" class="" data-old_color="#4671c6" style="fill:#6D6D6D"/></g><g><path d="m245.505 47.943h-35.403c-2.485 0-4.507-2.021-4.507-4.506v-10.339c0-2.485 2.021-4.506 4.507-4.506h35.403c2.485 0 4.507 2.021 4.507 4.506v10.339c0 2.484-2.022 4.506-4.507 4.506zm-35.403-15.352c-.279 0-.507.227-.507.506v10.339c0 .279.228.506.507.506h35.403c.279 0 .507-.227.507-.506v-10.338c0-.279-.228-.506-.507-.506h-35.403z" fill="#3762cc" data-original="#3762CC" class="" data-old_color="#3762cc" style="fill:#6C6D6D"/></g><g><path d="m63.689 227.409c-11.603 0-21.041-9.439-21.041-21.041s9.438-21.041 21.041-21.041 21.041 9.439 21.041 21.041-9.438 21.041-21.041 21.041zm0-38.082c-9.396 0-17.041 7.645-17.041 17.041s7.645 17.041 17.041 17.041 17.041-7.645 17.041-17.041-7.644-17.041-17.041-17.041z" fill="#3762cc" data-original="#3762CC" class="" data-old_color="#3762cc" style="fill:#6C6D6D"/></g><g><path d="m133.869 227.409c-11.603 0-21.041-9.439-21.041-21.041s9.438-21.041 21.041-21.041 21.041 9.439 21.041 21.041-9.438 21.041-21.041 21.041zm0-38.082c-9.396 0-17.041 7.645-17.041 17.041s7.645 17.041 17.041 17.041 17.041-7.645 17.041-17.041-7.644-17.041-17.041-17.041z" fill="#3762cc" data-original="#3762CC" class="" data-old_color="#3762cc" style="fill:#6C6D6D"/></g><g><path d="m63.688 217.774c-6.289 0-11.406-5.117-11.406-11.406s5.117-11.406 11.406-11.406 11.406 5.117 11.406 11.406-5.116 11.406-11.406 11.406zm0-18.813c-4.084 0-7.406 3.322-7.406 7.406s3.322 7.406 7.406 7.406 7.406-3.322 7.406-7.406-3.322-7.406-7.406-7.406z" fill="#3762cc" data-original="#3762CC" class="" data-old_color="#3762cc" style="fill:#6C6D6D"/></g><g><path d="m133.869 217.774c-6.289 0-11.406-5.117-11.406-11.406s5.117-11.406 11.406-11.406 11.406 5.117 11.406 11.406-5.117 11.406-11.406 11.406zm0-18.813c-4.084 0-7.406 3.322-7.406 7.406s3.322 7.406 7.406 7.406 7.406-3.322 7.406-7.406-3.322-7.406-7.406-7.406z" fill="#3762cc" data-original="#3762CC" class="" data-old_color="#3762cc" style="fill:#6C6D6D"/></g><g><path d="m161.425 181.071c-.165 0-.332-.006-.498-.018l-132.307-9.471c-3.213-.229-5.848-2.604-6.407-5.776l-16.118-91.406c-.534-3.03.955-6.03 3.706-7.465.975-.508 2.109-.766 3.373-.766h175.13c1.326 0 2.514.29 3.531.861h.001c2.827 1.588 4.221 4.864 3.389 7.967l-27.029 100.875c-.819 3.062-3.604 5.199-6.771 5.199zm-148.251-110.902c-.613 0-1.126.105-1.523.313-1.196.624-1.846 1.919-1.616 3.224l16.118 91.405c.24 1.362 1.372 2.383 2.753 2.481l132.302 9.472c.069.005.145.008.218.008 1.359 0 2.555-.918 2.907-2.233l27.029-100.876c.363-1.357-.232-2.741-1.484-3.444-.407-.228-.951-.349-1.573-.349h-175.131zm139.732 98.188c-.106 0-.214-.004-.322-.011l-17-1.217c-2.347-.168-4.185-2.143-4.185-4.495v-33.238c0-2.485 2.021-4.506 4.507-4.506h26.892c1.254 0 2.411.57 3.174 1.565s1.015 2.259.689 3.47l-9.402 35.092c-.531 1.979-2.331 3.34-4.353 3.34zm9.892-39.468h-26.892c-.279 0-.507.227-.507.506v33.238c0 .265.206.486.47.505l17 1.217c.007.002.024.001.037.001.227 0 .43-.153.489-.376zm-44.198 37.012c-.105 0-.212-.004-.318-.011l-37.838-2.709c-2.347-.168-4.186-2.143-4.186-4.495v-29.291c0-2.485 2.021-4.506 4.507-4.506h37.838c2.485 0 4.507 2.021 4.507 4.506v32c0 1.247-.523 2.449-1.436 3.298-.835.777-1.941 1.208-3.074 1.208zm-37.835-37.012c-.279 0-.507.227-.507.506v29.291c0 .264.207.486.471.505l37.838 2.709c.17.014.308-.065.382-.134.073-.068.161-.188.161-.371v-32c0-.279-.228-.506-.507-.506zm-17.307 33.065c-.105 0-.212-.004-.318-.011l-24.602-1.761c-2.064-.148-3.758-1.675-4.116-3.713l-4.637-26.291c-.231-1.315.128-2.656.986-3.679s2.116-1.61 3.452-1.61h29.238c2.484 0 4.506 2.021 4.506 4.506v28.052c0 1.247-.523 2.449-1.436 3.298-.834.778-1.939 1.209-3.073 1.209zm-29.234-33.065c-.195 0-.319.099-.389.181s-.145.221-.11.413l4.637 26.291c.04.229.23.4.462.417l24.602 1.761c.171.013.308-.065.382-.134.073-.068.161-.188.161-.371v-28.052c0-.279-.227-.506-.506-.506zm132.55-12.29h-30.868c-2.485 0-4.507-2.021-4.507-4.506v-29.127c0-2.485 2.021-4.506 4.507-4.506h38.673c1.412 0 2.716.643 3.575 1.764.859 1.12 1.144 2.545.777 3.909l-7.805 29.127c-.526 1.966-2.316 3.339-4.352 3.339zm-30.868-34.14c-.279 0-.507.227-.507.506v29.127c0 .279.228.506.507.506h30.868c.229 0 .43-.154.489-.375l7.805-29.127c.053-.199-.019-.349-.088-.439s-.195-.198-.401-.198zm-17.303 34.14h-37.838c-2.485 0-4.507-2.021-4.507-4.506v-29.127c0-2.485 2.021-4.506 4.507-4.506h37.838c2.485 0 4.507 2.021 4.507 4.506v29.127c-.001 2.485-2.022 4.506-4.507 4.506zm-37.838-34.14c-.279 0-.507.227-.507.506v29.127c0 .279.228.506.507.506h37.838c.279 0 .507-.227.507-.506v-29.126c0-.279-.228-.506-.507-.506h-37.838zm-17.303 34.14h-32.29c-2.191 0-4.058-1.566-4.438-3.724l-5.137-29.127c-.231-1.315.128-2.656.986-3.679s2.116-1.61 3.452-1.61h37.426c2.484 0 4.506 2.021 4.506 4.506v29.127c.001 2.486-2.021 4.507-4.505 4.507zm-37.426-34.14c-.195 0-.319.099-.389.181s-.145.221-.11.413l5.137 29.127c.043.242.252.418.498.418h32.29c.279 0 .506-.227.506-.506v-29.126c0-.279-.227-.506-.506-.506h-37.426z" fill="#3762cc" data-original="#3762CC" class="" data-old_color="#3762cc" style="fill:#6C6D6D"/></g></g></g> </svg>
