<svg height="512" viewBox="0 0 512 512" width="512" xmlns="http://www.w3.org/2000/svg"><path d="m48 96h16v56h-16z"/><path d="m48 168h16v16h-16z"/><path d="m488 64h-174.118l-10.109-41.879a8 8 0 0 0 -7.773-6.121h-80a8 8 0 0 0 -7.773 6.121l-10.109 41.879h-174.118a8 8 0 0 0 -8 8v320a8 8 0 0 0 8 8h40v24a8 8 0 0 0 8 8h37.289l-13.062 54.125a7.99 7.99 0 0 0 7.773 9.875h32a8 8 0 0 0 7.758-6.059l14.485-57.941h73.757v56a8 8 0 0 0 8 8h32a8 8 0 0 0 8-8v-56h73.757l14.485 57.941a8 8 0 0 0 7.758 6.059h32a7.99 7.99 0 0 0 7.773-9.875l-13.062-54.125h37.289a8 8 0 0 0 8-8v-24h40a8 8 0 0 0 8-8v-320a8 8 0 0 0 -8-8zm-190.578 0h-17.422v-32h9.7zm-33.422 0h-16v-32h16zm-41.7-32h9.7v32h-17.422zm-92.55 448h-15.586l11.578-48h16.008zm134.25 0h-16v-48h16zm118.25 0-12-48h16.008l11.578 48zm49.75-64h-352v-16h352zm48-32h-448v-304h448z"/></svg>