<svg id="Capa_1" enable-background="new 0 0 512 512" height="512" viewBox="0 0 512 512" width="512" xmlns="http://www.w3.org/2000/svg"><path d="m311.146 271.747c14.434 0 26.176-11.743 26.176-26.177v-9.319c0-14.434-11.743-26.177-26.176-26.177-14.434 0-26.177 11.743-26.177 26.177v9.319c0 14.434 11.743 26.177 26.177 26.177zm-11.177-35.496c0-6.163 5.014-11.177 11.177-11.177s11.176 5.014 11.176 11.177v9.319c0 6.163-5.014 11.177-11.176 11.177-6.163 0-11.177-5.014-11.177-11.177z"/><path d="m355.309 410.734c-4.142 0-7.5 3.358-7.5 7.5v27.828c0 4.142 3.358 7.5 7.5 7.5h66.358c4.142 0 7.5-3.358 7.5-7.5v-27.828c0-4.142-3.358-7.5-7.5-7.5zm58.858 27.828h-51.358v-12.828h51.358z"/><path d="m481.387 47.474c0-.002 0-.004 0-.006-.006-14.524-18.73-25.762-57.24-34.357-4.047-.906-8.052 1.644-8.954 5.686-.902 4.043 1.644 8.051 5.686 8.954 43.552 9.72 45.508 19.629 45.508 19.725-.1.066-.42 6.135-23.831 13.891-62.351 20.659-208.995 25.661-299.821 7.029-48.887-10.029-51.082-20.816-51.082-20.92s2.195-10.891 51.083-20.92c36.324-7.452 84.725-11.556 136.284-11.556 42.96 0 83.594 2.828 117.508 8.178 4.089.645 7.931-2.148 8.577-6.239.646-4.092-2.148-7.932-6.239-8.577-34.674-5.471-76.116-8.362-119.846-8.362-52.542 0-102.012 4.212-139.299 11.862-42.438 8.706-63.068 20.355-63.068 35.614v73.826l-28.71 47.826c-20.784 34.621-23.006 77.141-5.946 113.741 8.115 17.41 20.068 32.332 34.657 43.884v137.771c0 15.259 20.63 26.908 63.068 35.614 37.286 7.65 86.756 11.862 139.298 11.862s102.012-4.212 139.299-11.862c42.438-8.706 63.068-20.355 63.068-35.614v-89.673c0-4.142-3.358-7.5-7.5-7.5s-7.5 3.358-7.5 7.5v89.673c0 .104-2.195 10.892-51.083 20.92-36.324 7.452-84.724 11.556-136.284 11.556s-99.96-4.104-136.285-11.556c-48.887-10.029-51.083-20.816-51.083-20.92v-127.618c12.582 7.205 26.524 12.199 41.275 14.546 13.303 1.771 62.86 13.92 124.632-9.145 35.598-13.291 67.328-35.7 91.758-64.804l80.478-95.872c2.816 11.417 13.139 19.911 25.413 19.911 3.996 0 7.785-.903 11.176-2.512v150.576c0 4.142 3.358 7.5 7.5 7.5s7.5-3.358 7.5-7.5v-302.13c.003-.001.003-.001.003-.002zm-425.795 229.057c-15.175-32.555-13.275-68.888 5.211-99.683l15.85-26.403v156.453c-8.542-8.618-15.678-18.818-21.061-30.367zm351.089-90.695v-26.333c0-6.163 5.014-11.176 11.177-11.176 6.068 0 11.012 4.865 11.162 10.897zm48.53.705c-6.163 0-11.177-5.014-11.177-11.176v-15.861c0-14.434-11.743-26.176-26.176-26.176-14.434 0-26.177 11.743-26.177 26.176v32.342c0 6.163-5.014 11.176-11.176 11.176-6.163 0-11.177-5.014-11.177-11.176v-43.873c0-14.434-11.743-26.177-26.176-26.177s-26.176 11.743-26.176 26.177v27.392c0 6.163-5.014 11.176-11.177 11.176s-11.177-5.014-11.177-11.176v-4.157c0-14.434-11.743-26.176-26.176-26.176-14.434 0-26.176 11.743-26.176 26.176v57.141c0 6.163-5.014 11.177-11.177 11.177s-11.176-5.014-11.176-11.177v-27.956c0-4.142-3.358-7.5-7.5-7.5s-7.5 3.358-7.5 7.5v27.956c0 14.434 11.743 26.177 26.176 26.177 14.434 0 26.177-11.743 26.177-26.177v-57.141c0-6.163 5.014-11.176 11.176-11.176s11.176 5.014 11.176 11.176v4.157c0 14.434 11.743 26.176 26.177 26.176s26.177-11.743 26.177-26.176v-27.392c0-6.163 5.014-11.177 11.176-11.177s11.176 5.014 11.176 11.177v43.873c0 14.158 11.3 25.718 25.354 26.155l-41.852 49.858c-22.769 27.124-52.339 48.008-85.516 60.396-61.153 22.832-109.784 8.73-117.029 8.384-16.102-2.562-30.874-8.486-43.632-17.226v-252.027c26.419 15.315 82.77 22.062 113.263 24.608v83.152c0 4.142 3.358 7.5 7.5 7.5s7.5-3.358 7.5-7.5v-82.046c72.366 4.664 201.153.549 246.471-25.714v107.979c0 6.162-5.014 11.176-11.176 11.176z"/></svg>