<?xml version="1.0" encoding="iso-8859-1"?>
<!-- Generator: Adobe Illustrator 19.0.0, SVG Export Plug-In . SVG Version: 6.00 Build 0)  -->
<svg version="1.1" id="Capa_1" xmlns="http://www.w3.org/2000/svg" xmlns:xlink="http://www.w3.org/1999/xlink" x="0px" y="0px"
	 viewBox="0 0 512.001 512.001" style="enable-background:new 0 0 512.001 512.001;" xml:space="preserve">
<g>
	<g>
		<path d="M457.211,59.772h-24.31V24.826C432.901,11.137,421.764,0,408.076,0H87.565C73.876,0,62.739,11.137,62.739,24.826v34.945
			H39.921c-4.143,0-7.5,3.357-7.5,7.5s3.357,7.5,7.5,7.5h22.818v34.945c0,13.689,11.137,24.826,24.825,24.826h10.872v23.904
			c0,16.425,13.363,29.788,29.788,29.788c5.38,0,10.427-1.441,14.788-3.946v36.041c0,16.425,13.363,29.788,29.789,29.788
			c16.426,0,29.789-13.363,29.789-29.788v-85.787h28.417c4.143,0,7.5-3.357,7.5-7.5s-3.357-7.5-7.5-7.5h-10.399
			c2.708-4.559,4.269-9.876,4.269-15.553V66.274c4.559,2.707,9.879,4.263,15.554,4.263c16.847,0,30.553-13.706,30.553-30.554V15.001
			h137.093c5.417,0,9.824,4.407,9.824,9.825v84.892c0,5.417-4.406,9.825-9.824,9.825H266.009c-4.143,0-7.5,3.357-7.5,7.5
			s3.357,7.5,7.5,7.5h142.068c13.689,0,24.824-11.137,24.824-24.826V74.773h24.31c4.063,0,7.37,3.306,7.37,7.369v76.531
			c0,6.645-4.447,12.61-10.816,14.508l-201.133,59.909c-7.249,2.159-12.313,8.95-12.313,16.514v13.158h-33.591
			c-10.554,0-19.14,8.586-19.14,19.14v10.329c0,9.674,7.221,17.674,16.553,18.944l-13.84,138.886
			c-3.295,33.068,22.708,61.941,56.074,61.941c33.233,0,59.383-28.74,56.073-61.94l-4.859-48.778
			c-0.41-4.121-4.078-7.133-8.206-6.72c-4.122,0.41-7.131,4.085-6.72,8.206l4.859,48.779c2.418,24.263-16.664,45.451-41.147,45.451
			c-24.385,0-43.577-21.088-41.148-45.451l13.969-140.178h54.357l5.62,56.398c0.411,4.121,4.069,7.14,8.208,6.719
			c4.121-0.41,7.13-4.085,6.719-8.208l-5.471-54.909h1.656c10.554,0,19.14-8.587,19.14-19.14v-10.329
			c0-10.554-8.587-19.14-19.14-19.14h-34.966v-13.158c0-0.979,0.655-1.856,1.593-2.137l201.134-59.91
			c12.68-3.776,21.534-15.654,21.534-28.884V82.142C479.583,69.807,469.547,59.772,457.211,59.772z M143.012,158.449
			c0,8.154-6.634,14.787-14.788,14.787s-14.787-6.633-14.787-14.787v-23.904h29.575V158.449z M187.589,220.33
			c0,8.154-6.634,14.787-14.788,14.787c-8.153,0-14.788-6.633-14.788-14.787c0-10.454,0-76.026,0-85.787h29.576V220.33z
			 M240.431,55.535c-8.577,0-15.554-6.977-15.554-15.553c0-4.143-3.357-7.5-7.5-7.5s-7.5,3.357-7.5,7.5v64.007
			c0,8.576-6.976,15.553-15.552,15.553c-54.873,0-52.145,0-106.76,0c-5.417,0-9.824-4.407-9.824-9.825V24.826
			c0-5.417,4.406-9.825,9.824-9.825h168.418v24.982h0.001C255.983,48.558,249.007,55.535,240.431,55.535z M290.286,277.762
			c2.244,0,4.139,1.896,4.139,4.139v10.329c0,2.243-1.896,4.139-4.139,4.139c-30.366,0-52.838,0-83.558,0
			c-2.243,0-4.139-1.896-4.139-4.139v-10.329c0-2.243,1.896-4.139,4.139-4.139H290.286z"/>
	</g>
</g>
<g>
	<g>
		<path d="M246.376,427.845c-13.868,0-25.151,11.283-25.151,25.151c0,13.868,11.283,25.15,25.151,25.15
			c13.868,0,25.149-11.282,25.149-25.15S260.244,427.845,246.376,427.845z M246.377,463.144c-5.597,0-10.15-4.553-10.15-10.149
			c0-5.597,4.553-10.15,10.15-10.15c5.595-0.001,10.149,4.552,10.149,10.15C256.526,458.592,251.973,463.144,246.377,463.144z"/>
	</g>
</g>
<g>
</g>
<g>
</g>
<g>
</g>
<g>
</g>
<g>
</g>
<g>
</g>
<g>
</g>
<g>
</g>
<g>
</g>
<g>
</g>
<g>
</g>
<g>
</g>
<g>
</g>
<g>
</g>
<g>
</g>
</svg>
