<svg height="481pt" viewBox="0 0 481.79829 481" width="481pt" xmlns="http://www.w3.org/2000/svg"><path d="m210.34375 478.054688c3.121094 3.125 8.1875 3.125 11.308594 0l136-136 34.347656-34.34375 10.34375 10.34375c3.121094 3.125 8.1875 3.125 11.308594 0l18.347656-18.34375v68.6875c0 13.253906 10.742188 24 24 24 13.253906 0 24-10.746094 24-24v-112c-.042969-35.328126-28.671875-63.960938-64-64h-36.691406l-99.308594-99.3125v-84.6875c0-4.417969-3.582031-8-8-8-4.421875 0-8 3.582031-8 8v68.6875l-34.347656-34.34375c-2.007813-2.078126-4.980469-2.914063-7.777344-2.179688-2.796875.730469-4.980469 2.914062-5.714844 5.710938-.730468 2.796874.101563 5.773437 2.183594 7.78125l45.65625 45.65625v9.375l-66.347656-66.34375c-3.121094-3.121094-8.1875-3.121094-11.308594 0l-24 24c-3.125 3.125-3.125 8.1875 0 11.3125l10.34375 10.34375-170.34375 170.34375c-3.125 3.125-3.125 8.1875 0 11.3125zm77.65625-88.96875-84.691406-84.6875 52.691406-52.6875 84.6875 84.6875zm120-88-10.347656-10.34375-117.652344-117.65625v-25.375l140.6875 140.6875zm8-92.6875c26.496094.027343 47.972656 21.503906 48 48v112c0 4.417968-3.582031 8-8 8-4.421875 0-8-3.582032-8-8v-104c-.023438-20.738282-15.878906-38.027344-36.539062-39.847657l-16.152344-16.152343zm-136-92.6875 138.34375 138.34375c3.101562 3.089843 8.109375 3.109374 11.238281.046874 1.570313 3.207032 2.398438 6.726563 2.417969 10.296876v12.6875l-152-152zm-88-56 72 72v25.375l-74.347656-74.34375-10.34375-10.34375zm-8 40 80 80v28.6875c0 4.417968 3.578125 8 8 8 4.417969 0 8-3.582032 8-8v-12.6875l100.6875 100.6875-28.6875 28.6875-90.347656-90.34375c-3.121094-3.121094-8.1875-3.121094-11.308594 0l-64 64c-3.125 3.125-3.125 8.1875 0 11.3125l90.34375 90.34375-60.6875 60.6875-196.691406-196.6875zm0 0"/><path d="m462.855469 412.277344c-1.550781-2.257813-4.117188-3.609375-6.855469-3.609375-2.742188 0-5.308594 1.351562-6.859375 3.609375l-15.269531 25.449218c-6.492188 10.832032-4.195313 24.769532 5.433594 32.9375 9.628906 8.171876 23.757812 8.171876 33.386718 0 9.628906-8.167968 11.929688-22.105468 5.433594-32.9375zm-1.417969 46.882812c-3.816406 2.535156-8.878906 2.089844-12.195312-1.070312-3.316407-3.160156-4.003907-8.199219-1.652344-12.128906l8.410156-14.011719 8.40625 14.050781c2.671875 4.476562 1.367188 10.261719-2.96875 13.160156zm0 0"/><path d="m189.652344 130.742188c-3.121094-3.121094-8.1875-3.121094-11.308594 0l-128 128c-2.082031 2.007812-2.914062 4.984374-2.183594 7.78125.734375 2.796874 2.917969 4.980468 5.714844 5.714843 2.796875.730469 5.769531-.101562 7.777344-2.183593l128-128c3.125-3.125 3.125-8.1875 0-11.3125zm0 0"/></svg>