<?xml version="1.0" encoding="iso-8859-1"?>
<!-- Generator: Adobe Illustrator 19.0.0, SVG Export Plug-In . SVG Version: 6.00 Build 0)  -->
<svg xmlns="http://www.w3.org/2000/svg" xmlns:xlink="http://www.w3.org/1999/xlink" version="1.1" id="Capa_1" x="0px" y="0px" viewBox="0 0 455 455" style="enable-background:new 0 0 455 455;" xml:space="preserve" width="512" height="512">
<g>
	<path style="fill:#274B6D;" d="M86.25,35.9l10,20l-10,20c-24.16,6.14-47.37,10-56.25,10c-16.57,0-30-13.43-30-30s13.43-30,30-30   C38.88,25.9,62.09,29.76,86.25,35.9z"/>
	<polygon style="fill:#98D9D5;" points="176.25,35.9 186.25,55.9 176.25,75.9 86.25,75.9 86.25,35.9  "/>
	<path style="fill:#F2EBD9;" d="M425,115.9H30c-16.5,0-30,13.5-30,30v253.2c0,16.5,13.5,30,30,30h395c16.5,0,30-13.5,30-30V145.9   C455,129.4,441.5,115.9,425,115.9z"/>
	<circle style="fill:#F2484B;" cx="85.85" cy="201.7" r="55.8"/>
	<circle style="fill:#FF6E1D;" cx="227.5" cy="201.7" r="55.8"/>
	<circle style="fill:#FFCC75;" cx="369.15" cy="201.7" r="55.8"/>
	<circle style="fill:#185F8D;" cx="85.85" cy="343.3" r="55.8"/>
	<circle style="fill:#6DA8D6;" cx="227.5" cy="343.3" r="55.8"/>
	<circle style="fill:#98D9D5;" cx="369.15" cy="343.3" r="55.8"/>
	<path style="fill:#FFCC75;" d="M435,35.9c11.05,0,20,8.95,20,20s-8.95,20-20,20H176.25v-40H435z"/>
</g>















</svg>
