<?xml version="1.0" encoding="UTF-8"?>
<svg width="84px" height="84px" viewBox="0 0 84 84" version="1.1" xmlns="http://www.w3.org/2000/svg" xmlns:xlink="http://www.w3.org/1999/xlink">
    <!-- Generator: Sketch 47.1 (45422) - http://www.bohemiancoding.com/sketch -->
    <title>entrega@1x</title>
    <desc>Created with Sketch.</desc>
    <defs></defs>
    <g id="Page-1" stroke="none" stroke-width="1" fill="none" fill-rule="evenodd">
        <g id="Retirada" transform="translate(-18.000000, -438.000000)" fill-rule="nonzero">
            <g id="entrega" transform="translate(20.000000, 440.000000)">
                <circle id="Oval" stroke="#D9D9D9" stroke-width="4" fill="#F4F4F4" cx="40" cy="40" r="40"></circle>
                <path d="M58.6561616,32.4123906 L13.3333333,53.3333333 L40,80 C57.9291582,80 73.1027609,68.2036364 78.1839731,51.9490909 L58.6561616,32.4123906 Z" id="Shape" fill-opacity="0.15" fill="#000000"></path>
                <path d="M67.2560269,53.3333333 L47.7556902,53.3333333 L47.7556902,31.1111111 L55.4270707,31.1111111 C57.1911111,31.1111111 58.803771,32.1077441 59.5927273,33.6856566 L62.749899,40 L66.8,43.0798653 C68.1750842,43.9280808 69.0122559,45.4281481 69.0122559,47.043771 L69.0122559,51.5771044 C69.0122559,52.5470707 68.2259933,53.3333333 67.2560269,53.3333333 Z" id="Shape" fill="#C0392B"></path>
                <path d="M48.8888889,53.3333333 L13.3333333,53.3333333 L13.3333333,25.6339394 C13.3333333,23.7494949 14.8608754,22.2222222 16.7453199,22.2222222 L45.4771717,22.2222222 C47.3616162,22.2222222 48.8891582,23.7497643 48.8891582,25.6339394 L48.8891582,53.3333333 L48.8888889,53.3333333 Z" id="Shape" fill="#FC6F58"></path>
                <path d="M48.8888889,25.6342088 C48.8888889,23.7497643 47.3613468,22.2222222 45.4769024,22.2222222 L39.7753535,22.2222222 L39.7753535,53.3333333 L48.8888889,53.3333333 L48.8888889,25.6342088 Z" id="Shape" fill="#DD523C"></path>
                <path d="M57.2651852,33.9919192 L60.3367003,40.1346801 L51.4478114,40.1346801 L51.4478114,32.8619529 L55.437037,32.8619529 C56.2111785,32.8619529 56.9190572,33.2993939 57.2651852,33.9919192 Z" id="Shape" fill="#D0D5D9"></path>
                <circle id="Oval" fill="#32373B" cx="24.0514478" cy="53.3333333" r="6.27367003"></circle>
                <circle id="Oval" fill="#484F54" cx="24.0514478" cy="53.3333333" r="2.42424242"></circle>
                <circle id="Oval" fill="#32373B" cx="59.6070034" cy="53.3333333" r="6.27367003"></circle>
                <circle id="Oval" fill="#484F54" cx="59.6072727" cy="53.3333333" r="2.42424242"></circle>
                <circle id="Oval-Copy-3" stroke="#D9D9D9" stroke-width="4" cx="40" cy="40" r="40"></circle>
            </g>
        </g>
    </g>
</svg>