<?xml version="1.0" encoding="UTF-8"?>
<svg width="31px" height="16px" viewBox="0 0 31 16" version="1.1" xmlns="http://www.w3.org/2000/svg" xmlns:xlink="http://www.w3.org/1999/xlink">
    <!-- Generator: Sketch 58 (84663) - https://sketch.com -->
    <title>Glyphs/Product/Frete</title>
    <desc>Created with Sketch.</desc>
    <defs>
        <path d="M30.1484301,7.29938388 L26.6339251,3.28721108 C26.5193017,3.15643275 26.3538464,3.08133876 26.179929,3.08133876 L23.2533939,3.08133876 L23.2533939,0.603533138 C23.2533939,0.270196324 22.9831384,0 22.6498608,0 L10.1846735,0 C9.85139585,0 9.58114035,0.270196324 9.58114035,0.603533138 L9.58114035,1.41790936 L3.77647591,1.41790936 C3.44319827,1.41790936 3.17294277,1.68810568 3.17294277,2.0214425 C3.17294277,2.35477931 3.44319827,2.62497563 3.77647591,2.62497563 L9.58114035,2.62497563 L9.58114035,10.4485972 L6.08705096,10.4485972 C5.75377332,10.4485972 5.48351782,10.7187935 5.48351782,11.0521303 C5.48351782,11.3854671 5.75377332,11.6556635 6.08705096,11.6556635 L9.58114035,11.6556635 L9.58114035,12.2690198 C9.58114035,12.6023566 9.85139585,12.8725529 10.1846735,12.8725529 L11.4444062,12.8725529 C11.7098092,13.839425 12.5959064,14.5520781 13.6459204,14.5520781 C14.6959343,14.5520781 15.5820315,13.839425 15.8474937,12.8725529 L23.9006579,12.8725529 L23.9006579,12.8724937 C24.166061,13.8393658 25.0521582,14.5520781 26.1021721,14.5520781 C27.152186,14.5520781 28.0382832,13.8393658 28.3037455,12.8724937 L29.6944932,12.8724937 C30.0277708,12.8724937 30.2980263,12.6022974 30.2980263,12.2689606 L30.2980263,7.69698552 C30.2980263,7.55076232 30.2447682,7.40939153 30.1484301,7.29938388 Z M13.6459204,13.3450118 C13.0526246,13.3450118 12.5699875,12.8623155 12.5699875,12.2690198 C12.5699875,11.675724 13.0526246,11.1930277 13.6459204,11.1930277 C14.2392161,11.1930277 14.7219124,11.675724 14.7219124,12.2690198 C14.7219124,12.8623155 14.2392161,13.3450118 13.6459204,13.3450118 Z M15.8473754,11.6654866 C15.5819723,10.6986146 14.6958159,9.98596143 13.645802,9.98596143 C12.5957881,9.98596143 11.7097501,10.6986146 11.4442878,11.6654866 L10.7880883,11.6654866 L10.7880883,1.2070071 L22.0460909,1.2070071 L22.0460909,11.6654866 L15.8473754,11.6654866 Z M26.1020537,13.3450118 C25.508758,13.3450118 25.0261209,12.8623155 25.0261209,12.2690198 C25.0261209,11.675724 25.508758,11.1930277 26.1020537,11.1930277 C26.6953495,11.1930277 27.1780458,11.675724 27.1780458,12.2690198 C27.1780458,12.8623155 26.6954087,13.3450118 26.1020537,13.3450118 Z M29.0909009,11.6654866 L28.3036271,11.6654866 C28.038224,10.6986146 27.1520677,9.98596143 26.1020537,9.98596143 C25.0520398,9.98596143 24.1660018,10.6986146 23.9005395,11.6654866 L23.2532164,11.6654866 L23.2532164,4.28840504 L25.9061229,4.28840504 L29.0908417,7.92398357 L29.0908417,11.6654866 L29.0909009,11.6654866 Z M4.09856934,10.448538 L3.77653509,10.448538 C3.44325745,10.448538 3.17300195,10.7187343 3.17300195,11.0520712 C3.17300195,11.385408 3.44325745,11.6556043 3.77653509,11.6556043 L4.09856934,11.6556043 C4.43184698,11.6556043 4.70210248,11.385408 4.70210248,11.0520712 C4.70210248,10.7187343 4.43190615,10.448538 4.09856934,10.448538 Z M7.07149819,5.87218393 L0.603533138,5.87218393 C0.2702555,5.87218393 0,6.14238026 0,6.47571707 C0,6.80905388 0.2702555,7.07925021 0.603533138,7.07925021 L7.07149819,7.07925021 C7.40477583,7.07925021 7.67503133,6.80905388 7.67503133,6.47571707 C7.67503133,6.14238026 7.40477583,5.87218393 7.07149819,5.87218393 Z" id="path-1"></path>
    </defs>
    <g id="Frete-(entrega-x-retirar-na-loja)" stroke="none" stroke-width="1" fill="none" fill-rule="evenodd">
        <g id="Produto---Desktop-(frete-vs-retirada-na-loja)" transform="translate(-921.000000, -969.000000)">
            <g id="Group-3-Copy" transform="translate(918.000000, 958.000000)">
                <g id="Glyphs/Product/Frete" transform="translate(1.000000, 2.000000)">
                    <g id="Colors/Preto" transform="translate(2.428571, 9.714286)">
                        <mask id="mask-2" fill="white">
                            <use xlink:href="#path-1"></use>
                        </mask>
                        <use id="Combined-Shape" fill="#000000" fill-rule="nonzero" xlink:href="#path-1"></use>
                        <g id="Colors/Red" mask="url(#mask-2)" fill="#DA0812">
                            <g transform="translate(-2.428571, -9.714286)" id="Rectangle">
                                <rect x="0" y="0" width="34" height="34"></rect>
                            </g>
                        </g>
                    </g>
                </g>
            </g>
        </g>
    </g>
</svg>