<?xml version="1.0" encoding="UTF-8"?>
<svg width="84px" height="84px" viewBox="0 0 84 84" version="1.1" xmlns="http://www.w3.org/2000/svg" xmlns:xlink="http://www.w3.org/1999/xlink">
    <!-- Generator: Sketch 47.1 (45422) - http://www.bohemiancoding.com/sketch -->
    <title>imediata@1x</title>
    <desc>Created with Sketch.</desc>
    <defs></defs>
    <g id="Page-1" stroke="none" stroke-width="1" fill="none" fill-rule="evenodd">
        <g id="Retirada" transform="translate(-18.000000, -228.000000)">
            <g id="imediata" transform="translate(20.000000, 230.000000)">
                <circle id="Oval" stroke="#D9D9D9" stroke-width="4" fill="#F4F4F4" fill-rule="nonzero" cx="40" cy="40" r="40"></circle>
                <path d="M78.1339349,52.1104136 C73.3444908,67.2052418 59.8404463,78.4200685 43.5303486,79.8463466 L22.7617188,58.5957031 L20.9589844,52.6669922 L37.7607422,50.8554688 L49.7753906,49.5087891 L57.6386719,34.7949219 L78.1339349,52.1104136 Z" id="Combined-Shape" fill-opacity="0.15" fill="#000000"></path>
                <circle id="Oval-Copy" stroke="#D9D9D9" stroke-width="4" fill-rule="nonzero" cx="40" cy="40" r="40"></circle>
                <g id="trolley-1-copy" transform="translate(17.000000, 19.000000)" fill-rule="nonzero">
                    <g id="Group" transform="translate(5.440909, 32.168182)" fill="#768989">
                        <path d="M5.59583182,2.97856364 C5.59583182,3.45755455 5.20714091,3.84624545 4.72662273,3.84624545 L0.961227273,3.84624545 C0.482236364,3.84624545 0.0920181818,3.45679091 0.0920181818,2.97856364 L0.0920181818,0.950727273 C0.0920181818,0.470304545 0.483,0.0815181818 0.961227273,0.0815181818 L4.72671818,0.0815181818 C5.20790455,0.0815181818 5.59592727,0.470972727 5.59592727,0.950727273 L5.59592727,2.97856364 L5.59583182,2.97856364 Z" id="Shape"></path>
                        <path d="M38.7623727,2.97856364 C38.7623727,3.45755455 38.3729182,3.84624545 37.8931636,3.84624545 L34.1276727,3.84624545 C33.6486818,3.84624545 33.2584636,3.45679091 33.2584636,2.97856364 L33.2584636,0.950727273 C33.2584636,0.470304545 33.6494455,0.0815181818 34.1276727,0.0815181818 L37.8931636,0.0815181818 C38.3735864,0.0815181818 38.7623727,0.470972727 38.7623727,0.950727273 L38.7623727,2.97856364 Z" id="Shape"></path>
                    </g>
                    <g id="box2" transform="translate(12.000000, 15.000000)">
                        <path d="M13.4459864,12.85125 C13.4459864,13.2407045 13.1302227,13.5565636 12.7406727,13.5565636 L1.06161818,13.5565636 C0.670636364,13.5565636 0.356304545,13.2408 0.356304545,12.85125 L0.356304545,1.1721 C0.356304545,0.782645455 0.671304545,0.466786364 1.06161818,0.466786364 L12.7406727,0.466786364 C13.1301273,0.466786364 13.4459864,0.78255 13.4459864,1.1721 L13.4459864,12.85125 Z" id="Shape" fill="#C17E52"></path>
                        <path d="M13.4459864,1.1721 L13.4459864,12.8511545 C13.4459864,13.2406091 13.1302227,13.5564682 12.7406727,13.5564682 L1.06161818,13.5564682" id="Shape" fill="#B56841"></path>
                        <path d="M0.356304545,1.1721 C0.356304545,0.782645455 0.671304545,0.466786364 1.06161818,0.466786364 L12.7406727,0.466786364 C13.1301273,0.466786364 13.4459864,0.78255 13.4459864,1.1721 L13.4459864,12.8511545 C13.4459864,13.2406091 13.1302227,13.5564682 12.7406727,13.5564682" id="Shape" fill="#A86743"></path>
                    </g>
                    <g id="box1" transform="translate(27.000000, 15.000000)">
                        <path d="M13.4837045,12.85125 C13.4837045,13.2407045 13.1679409,13.5565636 12.7783909,13.5565636 L1.09933636,13.5565636 C0.708354545,13.5565636 0.394022727,13.2408 0.394022727,12.85125 L0.394022727,1.1721 C0.394022727,0.782645455 0.709022727,0.466786364 1.09933636,0.466786364 L12.7783909,0.466786364 C13.1678455,0.466786364 13.4837045,0.78255 13.4837045,1.1721 L13.4837045,12.85125 Z" id="Shape" fill="#C17E52"></path>
                        <path d="M13.4837045,1.1721 L13.4837045,12.8511545 C13.4837045,13.2406091 13.1679409,13.5564682 12.7783909,13.5564682 L1.09933636,13.5564682" id="Shape" fill="#B56841"></path>
                        <path d="M0.394118182,1.1721 C0.394118182,0.782645455 0.709118182,0.466786364 1.09943182,0.466786364 L12.7784864,0.466786364 C13.1679409,0.466786364 13.4838,0.78255 13.4838,1.1721 L13.4838,12.8511545 C13.4838,13.2406091 13.1680364,13.5564682 12.7784864,13.5564682" id="Shape" fill="#A86743"></path>
                    </g>
                    <g id="box3" transform="translate(19.000000, 0.000000)">
                        <path d="M13.4640909,13.0645773 C13.4640909,13.4540318 13.1483273,13.7698909 12.7587773,13.7698909 L1.07972273,13.7698909 C0.688740909,13.7698909 0.373740909,13.4541273 0.373740909,13.0645773 L0.373740909,1.38552273 C0.373740909,0.994540909 0.689504545,0.679540909 1.07972273,0.679540909 L12.7587773,0.679540909 C13.1482318,0.679540909 13.4640909,0.995304545 13.4640909,1.38552273 L13.4640909,13.0645773 Z" id="Shape" fill="#C17E52"></path>
                        <path d="M13.4640909,1.38552273 L13.4640909,13.0645773 C13.4640909,13.4540318 13.1483273,13.7698909 12.7587773,13.7698909 L1.07972273,13.7698909" id="Shape" fill="#B56841"></path>
                        <path d="M0.373740909,1.38552273 C0.373740909,0.994540909 0.689504545,0.679540909 1.07972273,0.679540909 L12.7587773,0.679540909 C13.1482318,0.679540909 13.4640909,0.995304545 13.4640909,1.38552273 L13.4640909,13.0645773 C13.4640909,13.4540318 13.1483273,13.7698909 12.7587773,13.7698909" id="Shape" fill="#A86743"></path>
                    </g>
                    <path d="M7.08940909,5.89078636 C6.36987273,5.89078636 5.78712273,6.47353636 5.78712273,7.19307273 L5.78712273,28.1947909 C5.78712273,28.9143273 6.36987273,29.4970773 7.08940909,29.4970773 C7.80894545,29.4970773 8.39322273,28.9143273 8.39322273,28.1947909 L8.39322273,7.19383636 C8.39312727,6.47353636 7.80894545,5.89078636 7.08940909,5.89078636 Z" id="Shape" fill="#C0392B"></path>
                    <g id="Group" fill="#A82720">
                        <path d="M7.08940909,5.89078636 C6.36987273,5.89078636 5.78712273,6.47353636 5.78712273,7.19307273 L5.78712273,15.3773455 C5.78712273,16.0968818 6.36987273,16.6796318 7.08940909,16.6796318 C7.80894545,16.6796318 8.39322273,16.0968818 8.39322273,15.3773455 L8.39322273,7.19383636 C8.39312727,6.47353636 7.80894545,5.89078636 7.08940909,5.89078636 Z" id="Shape"></path>
                        <path d="M0.381054545,0.45465 C-0.127240909,0.962181818 -0.127240909,1.78776818 0.382581818,2.29606364 L6.16836818,8.08337727 C6.67819091,8.59167273 7.50148636,8.5932 8.01121364,8.08337727 C8.52103636,7.57355455 8.52103636,6.74873182 8.01121364,6.24053182 L2.22542727,0.453122727 C1.71560455,-0.0550772727 0.890781818,-0.0550772727 0.381054545,0.45465 Z" id="Shape"></path>
                    </g>
                    <path d="M45.8687727,33.1542273 C45.8687727,33.6332182 45.4793182,34.0234364 45.0010909,34.0234364 L4.73674091,34.0234364 C4.25631818,34.0234364 3.86753182,33.6324545 3.86753182,33.1542273 L3.86753182,28.9542273 C3.86753182,28.4738045 4.25698636,28.0850182 4.73674091,28.0850182 L45.0010909,28.0850182 C45.4800818,28.0850182 45.8687727,28.4744727 45.8687727,28.9542273 L45.8687727,33.1542273 Z" id="Shape" fill="#93A4A5"></path>
                    <path d="M45.0010909,28.0850182 L4.73674091,28.0850182 C4.25631818,28.0850182 3.86753182,28.4744727 3.86753182,28.9542273 L3.86753182,29.3873045 C3.86753182,29.8677273 4.25698636,30.2565136 4.73674091,30.2565136 L45.0010909,30.2565136 C45.4800818,30.2565136 45.8687727,29.8670591 45.8687727,29.3873045 L45.8687727,28.9542273 C45.8687727,28.4738045 45.4792227,28.0850182 45.0010909,28.0850182 Z" id="Shape" fill="#A9BFBF"></path>
                    <path d="M13.6375909,37.0017136 C13.6375909,38.8693773 12.1202455,40.3851955 10.2525818,40.3851955 C8.38491818,40.3851955 6.8691,38.8693773 6.8691,37.0017136 C6.8691,35.1309955 8.38491818,33.6151773 10.2525818,33.6151773 C12.1202455,33.6151773 13.6375909,35.1309955 13.6375909,37.0017136 Z" id="Shape" fill="#484F54"></path>
                    <path d="M10.2525818,41.9784273 C7.50816818,41.9784273 5.27586818,39.7446 5.27586818,37.0017136 C5.27586818,34.2557727 7.50826364,32.0234727 10.2525818,32.0234727 C12.9969,32.0234727 15.2292955,34.2558682 15.2292955,37.0017136 C15.2292955,39.7446 12.9969955,41.9784273 10.2525818,41.9784273 Z M10.2525818,35.2084091 C9.26462727,35.2084091 8.46080455,36.0129 8.46080455,37.0016182 C8.46080455,37.9881409 9.26386364,38.7918682 10.2525818,38.7918682 C11.2413,38.7918682 12.0457909,37.9888091 12.0457909,37.0016182 C12.0457909,36.0136636 11.2405364,35.2084091 10.2525818,35.2084091 Z" id="Shape" fill="#32373B"></path>
                    <circle id="Oval" fill="#484F54" cx="39.4837227" cy="37.0001864" r="3.38500909"></circle>
                    <path d="M43.00485,40.52055 C41.0634955,42.4619045 37.9063364,42.4619045 35.9648864,40.52055 C34.0235318,38.5791955 34.0235318,35.4234682 35.9648864,33.4821136 C37.9062409,31.5392318 41.0634,31.5392318 43.00485,33.4821136 C44.9446773,35.4227045 44.9446773,38.5791 43.00485,40.52055 Z M38.2190455,35.7332182 C37.5183136,36.4325182 37.5183136,37.5686182 38.2190455,38.2678227 C38.9168182,38.9671227 40.0529182,38.9671227 40.7521227,38.2678227 C41.4506591,37.5685227 41.4506591,36.4324227 40.7521227,35.7332182 C40.0536818,35.0355409 38.9168182,35.0355409 38.2190455,35.7332182 Z" id="Shape" fill="#32373B"></path>
                </g>
            </g>
        </g>
    </g>
</svg>