<?xml version="1.0" encoding="UTF-8"?>
<svg width="84px" height="84px" viewBox="0 0 84 84" version="1.1" xmlns="http://www.w3.org/2000/svg" xmlns:xlink="http://www.w3.org/1999/xlink">
    <!-- Generator: Sketch 47.1 (45422) - http://www.bohemiancoding.com/sketch -->
    <title>posterior@1x</title>
    <desc>Created with Sketch.</desc>
    <defs></defs>
    <g id="Page-1" stroke="none" stroke-width="1" fill="none" fill-rule="evenodd">
        <g id="Adicionar-à-sacola" transform="translate(-138.000000, -83.000000)" fill-rule="nonzero">
            <g id="app-bar">
                <g id="posterior" transform="translate(140.000000, 85.000000)">
                    <circle id="Oval" fill="#F4F4F4" cx="40" cy="40" r="40"></circle>
                    <path d="M62.074707,27.9750977 L17.9912109,64.1884766 L32.6585859,79.3252525 C35.0386532,79.766734 37.4919865,80 40,80 C62.0913131,80 80,62.0913131 80,40 L62.074707,27.9750977 Z" id="Shape" fill-opacity="0.15" fill="#000000"></path>
                    <g id="Group-2" transform="translate(17.000000, 15.000000)">
                        <polygon id="Shape" fill="#DD523C" points="44.9494949 49.2929293 0.505050505 49.2929293 0.505050505 12.9292929 22.7272727 0.808080808 44.9494949 12.9292929"></polygon>
                        <polygon id="Shape" fill="#C0392B" points="44.9494949 12.9292929 22.7681665 0.830364249 22.7681665 49.2929293 44.9494949 49.2929293"></polygon>
                        <polygon id="Shape" fill="#F4F4F4" points="40.0018365 49.2929293 5.45270891 49.2929293 5.45270891 16.9848791 22.7272727 7.562412 40.0018365 16.9848791"></polygon>
                        <g id="Group-3" transform="translate(9.000000, 22.000000)">
                            <g id="box2" transform="translate(0.000000, 14.000000)">
                                <path d="M12.4855588,11.9333036 C12.4855588,12.2949399 12.1923497,12.5882377 11.8306247,12.5882377 L0.985788312,12.5882377 C0.622733766,12.5882377 0.330854221,12.2950286 0.330854221,11.9333036 L0.330854221,1.08837857 C0.330854221,0.726742208 0.623354221,0.433444481 0.985788312,0.433444481 L11.8306247,0.433444481 C12.192261,0.433444481 12.4855588,0.726653571 12.4855588,1.08837857 L12.4855588,11.9333036 Z" id="Shape" fill="#C17E52"></path>
                                <path d="M12.4855588,1.08837857 L12.4855588,11.9332149 C12.4855588,12.2948513 12.1923497,12.588149 11.8306247,12.588149 L0.985788312,12.588149" id="Shape" fill="#B56841"></path>
                                <path d="M0.330854221,1.08837857 C0.330854221,0.726742208 0.623354221,0.433444481 0.985788312,0.433444481 L11.8306247,0.433444481 C12.192261,0.433444481 12.4855588,0.726653571 12.4855588,1.08837857 L12.4855588,11.9332149 C12.4855588,12.2948513 12.1923497,12.588149 11.8306247,12.588149" id="Shape" fill="#A86743"></path>
                            </g>
                            <g id="box1" transform="translate(14.000000, 14.000000)">
                                <path d="M12.5205828,11.9333036 C12.5205828,12.2949399 12.2273737,12.5882377 11.8656487,12.5882377 L1.02081234,12.5882377 C0.657757792,12.5882377 0.365878247,12.2950286 0.365878247,11.9333036 L0.365878247,1.08837857 C0.365878247,0.726742208 0.658378247,0.433444481 1.02081234,0.433444481 L11.8656487,0.433444481 C12.2272851,0.433444481 12.5205828,0.726653571 12.5205828,1.08837857 L12.5205828,11.9333036 Z" id="Shape" fill="#C17E52"></path>
                                <path d="M12.5205828,1.08837857 L12.5205828,11.9332149 C12.5205828,12.2948513 12.2273737,12.588149 11.8656487,12.588149 L1.02081234,12.588149" id="Shape" fill="#B56841"></path>
                                <path d="M0.365966883,1.08837857 C0.365966883,0.726742208 0.658466883,0.433444481 1.02090097,0.433444481 L11.8657373,0.433444481 C12.2273737,0.433444481 12.5206714,0.726653571 12.5206714,1.08837857 L12.5206714,11.9332149 C12.5206714,12.2948513 12.2274623,12.588149 11.8657373,12.588149" id="Shape" fill="#A86743"></path>
                            </g>
                            <g id="box3" transform="translate(7.000000, 0.000000)">
                                <path d="M12.5023701,12.1313932 C12.5023701,12.4930295 12.209161,12.7863273 11.847436,12.7863273 L1.00259968,12.7863273 C0.63954513,12.7863273 0.34704513,12.4931182 0.34704513,12.1313932 L0.34704513,1.28655682 C0.34704513,0.923502273 0.640254221,0.631002273 1.00259968,0.631002273 L11.847436,0.631002273 C12.2090724,0.631002273 12.5023701,0.924211364 12.5023701,1.28655682 L12.5023701,12.1313932 Z" id="Shape" fill="#C17E52"></path>
                                <path d="M12.5023701,1.28655682 L12.5023701,12.1313932 C12.5023701,12.4930295 12.209161,12.7863273 11.847436,12.7863273 L1.00259968,12.7863273" id="Shape" fill="#B56841"></path>
                                <path d="M0.34704513,1.28655682 C0.34704513,0.923502273 0.640254221,0.631002273 1.00259968,0.631002273 L11.847436,0.631002273 C12.2090724,0.631002273 12.5023701,0.924211364 12.5023701,1.28655682 L12.5023701,12.1313932 C12.5023701,12.4930295 12.209161,12.7863273 11.847436,12.7863273" id="Shape" fill="#A86743"></path>
                            </g>
                        </g>
                        <polygon id="Shape" fill-opacity="0.1" fill="#000000" points="40.0018365 16.9848791 22.7681665 7.58469544 22.7681665 49.2929293 40.0018365 49.2929293"></polygon>
                    </g>
                    <circle id="Oval-Copy-2" stroke="#D9D9D9" stroke-width="3" cx="40" cy="40" r="40"></circle>
                </g>
            </g>
        </g>
    </g>
</svg>