<?xml version="1.0"?>
<svg xmlns="http://www.w3.org/2000/svg" xmlns:xlink="http://www.w3.org/1999/xlink" version="1.1" id="Capa_1" x="0px" y="0px" viewBox="0 0 490 490" style="enable-background:new 0 0 490 490;" xml:space="preserve" width="512px" height="512px"><g><g>
	<circle cx="225.138" cy="384.866" r="30.541" data-original="#000000" class="active-path" data-old_color="#000000" fill="#DC0A23"/>
	<circle cx="81.357" cy="384.866" r="30.541" data-original="#000000" class="active-path" data-old_color="#000000" fill="#DC0A23"/>
	<g>
		<path d="M476.694,386.927H353.388c-7.349,0-13.307-5.957-13.307-13.307V87.898c0-7.349,5.958-13.306,13.307-13.306    c7.348,0,13.306,5.957,13.306,13.306v272.416h110.001c7.349,0,13.306,5.958,13.306,13.306    C490,380.97,484.043,386.927,476.694,386.927z" data-original="#000000" class="active-path" data-old_color="#000000" fill="#DC0A23"/>
	</g>
	<path d="M303.22,272.328c-27.527-44.988-99.912-165.543-100.638-166.749c-3.685-6.169-10.439-10.001-17.623-10.001H67.71   c-11.321,0-20.531,9.21-20.531,20.531v112.979H14.186C6.363,229.089,0,235.452,0,243.273v130.894   c0,7.821,6.363,14.184,14.186,14.184h14.859c1.924,0,3.482-1.56,3.482-3.484c0-26.924,21.905-48.829,48.83-48.829   s48.83,21.905,48.83,48.83c0,0.924,0.367,1.81,1.02,2.463c0.654,0.654,1.539,1.02,2.464,1.02h39.155   c1.923,0,3.483-1.56,3.483-3.484c0-26.924,21.903-48.829,48.828-48.829s48.83,21.905,48.83,48.83c0,1.924,1.56,3.483,3.483,3.483   h10.629c10.154,0,18.416-8.261,18.416-18.415v-88.337C306.496,277.986,304.805,274.92,303.22,272.328z M186.723,272.105v-19.082   c0-3.278-2.659-5.937-5.938-5.937h-33.646v-56.19c0-3.279-2.658-5.938-5.938-5.938h-18.802c-3.278,0-5.938,2.658-5.938,5.938v81.21   H88.243L88.24,136.64h85.069l80.945,135.466H186.723z" data-original="#000000" class="active-path" data-old_color="#000000" fill="#DC0A23"/>
	<g>
		<path d="M490,333.104c0,3.498-2.835,6.333-6.332,6.333h-90.724c-3.498,0-6.333-2.835-6.333-6.333v-90.724    c0-3.498,2.835-6.333,6.333-6.333h90.724c3.497,0,6.332,2.835,6.332,6.333V333.104z" data-original="#000000" class="active-path" data-old_color="#000000" fill="#DC0A23"/>
		<path d="M490,203.78c0,3.498-2.835,6.334-6.332,6.334h-90.724c-3.498,0-6.333-2.836-6.333-6.334v-90.723    c0-3.498,2.835-6.333,6.333-6.333h90.724c3.497,0,6.332,2.835,6.332,6.333V203.78z" data-original="#000000" class="active-path" data-old_color="#000000" fill="#DC0A23"/>
	</g>
</g></g> </svg>
