<?xml version="1.0" encoding="UTF-8"?>
<svg width="24px" height="21px" viewBox="0 0 24 21" version="1.1" xmlns="http://www.w3.org/2000/svg" xmlns:xlink="http://www.w3.org/1999/xlink">
    <!-- Generator: Sketch 58 (84663) - https://sketch.com -->
    <title>Glyphs/Product/Shop</title>
    <desc>Created with Sketch.</desc>
    <defs>
        <path d="M25.1451924,7.28571429 C25.3479041,7.28571429 25.5364732,7.40165825 25.635472,7.5804052 L25.635472,7.5804052 L29.0674295,13.7640834 C29.119286,13.8510414 29.1428571,13.9476614 29.1428571,14.0491124 C29.1428571,15.44044 28.3225816,16.6336966 27.1534532,17.1602755 C27.1581674,17.1795995 27.1581674,17.1989235 27.1581674,17.2230785 L27.1581674,27.3488516 C27.1581674,27.6676975 26.9035992,27.9285714 26.5924602,27.9285714 L26.5924602,27.9285714 L8.61711133,27.9285714 C8.30597233,27.9285714 8.05140405,27.6676975 8.05140405,27.3488516 L8.05140405,27.3488516 L8.05140405,17.1506135 C6.8869899,16.6240346 6.07142857,15.435609 6.07142857,14.0491124 C6.07142857,13.9476614 6.09971394,13.8510414 6.14685621,13.7640834 L6.14685621,13.7640834 L9.57409948,7.5804052 C9.67309825,7.39682725 9.86166735,7.28571429 10.0643791,7.28571429 L10.0643791,7.28571429 Z M23.0897892,15.9428638 C22.4957966,16.8462606 21.4916662,17.4404734 20.3508232,17.4404734 C19.2146944,17.4404734 18.2058497,16.8462606 17.6118571,15.9428638 C17.0131502,16.8462606 16.0090198,17.4404734 14.8681768,17.4404734 C13.7273338,17.4404734 12.7184891,16.8462606 12.1244965,15.9428638 C11.5305038,16.8462606 10.5216592,17.4404734 9.38081616,17.4404734 C9.31481698,17.4404734 9.24881779,17.4404734 9.18281861,17.4356424 L9.18281861,17.4356424 L9.18281861,26.7739628 L11.1863652,26.7739628 L11.1863652,20.5129885 C11.1863652,19.4163518 12.0584973,18.5274481 13.1239127,18.5274481 L13.1239127,18.5274481 L14.769178,18.5274481 C15.8393076,18.5274481 16.7067254,19.4211828 16.7067254,20.5129885 L16.7067254,20.5129885 L16.7067254,26.7691318 L26.0267529,26.7691318 L26.0267529,17.4356424 C25.9607537,17.4356424 25.8994687,17.4404734 25.8334696,17.4404734 C24.6926265,17.4404734 23.6837819,16.8462606 23.0897892,15.9428638 Z M14.7738922,19.6868878 L13.1286269,19.6868878 C12.6807753,19.6868878 12.322494,20.0588747 12.322494,20.5129885 L12.322494,20.5129885 L12.322494,26.7691318 L15.5800251,26.7691318 L15.5800251,20.5129885 C15.5800251,20.0540437 15.2170296,19.6868878 14.7738922,19.6868878 L14.7738922,19.6868878 Z M21.9968086,18.5454545 C22.8841445,18.5454545 23.6057143,19.2576091 23.6057143,20.1333666 L23.6057143,20.1333666 L23.6057143,22.5874126 C23.6057143,23.4631702 22.8841445,24.1753247 21.9968086,24.1753247 L21.9968086,24.1753247 L18.7546199,24.1753247 C17.8672841,24.1753247 17.1457143,23.4631702 17.1457143,22.5874126 L17.1457143,22.5874126 L17.1457143,20.1333666 C17.1457143,19.2576091 17.8672841,18.5454545 18.7546199,18.5454545 L18.7546199,18.5454545 Z M21.9968086,19.7002997 L18.7546199,19.7002997 C18.5157218,19.7002997 18.3158275,19.8927739 18.3158275,20.1333666 L18.3158275,20.1333666 L18.3158275,22.5874126 C18.3158275,22.8231935 18.5108464,23.0204795 18.7546199,23.0204795 L18.7546199,23.0204795 L21.9968086,23.0204795 C22.2357067,23.0204795 22.4356011,22.8280053 22.4356011,22.5874126 L22.4356011,22.5874126 L22.4356011,20.1333666 C22.4356011,19.8975857 22.2405822,19.7002997 21.9968086,19.7002997 L21.9968086,19.7002997 Z M27.978443,14.4452543 L23.6932103,14.4452543 C23.872351,15.48875 24.7633399,16.2810337 25.8334696,16.2810337 C26.9035992,16.2810337 27.7945881,15.483919 27.978443,14.4452543 L27.978443,14.4452543 Z M22.4910824,14.4404233 L18.210564,14.4404233 C18.3897046,15.483919 19.2806936,16.2762027 20.3508232,16.2762027 C21.4209528,16.2762027 22.3119417,15.483919 22.4910824,14.4404233 L22.4910824,14.4404233 Z M17.008436,14.4404233 L12.7232033,14.4404233 C12.9070582,15.483919 13.7980472,16.2762027 14.8681768,16.2762027 C15.9383064,16.2762027 16.8292953,15.483919 17.008436,14.4404233 L17.008436,14.4404233 Z M11.5257896,14.4404233 L7.24055695,14.4404233 C7.41969759,15.483919 8.31068655,16.2810337 9.38081616,16.2762027 C10.4509458,16.2762027 11.346649,15.483919 11.5257896,14.4404233 L11.5257896,14.4404233 Z M24.8151965,8.44998496 L10.394375,8.44998496 L7.71669391,13.2858146 L27.4975918,13.2858146 L24.8151965,8.44998496 Z" id="path-1"></path>
    </defs>
    <g id="Frete-(entrega-x-retirar-na-loja)" stroke="none" stroke-width="1" fill="none" fill-rule="evenodd">
        <g id="Produto---Desktop-(frete-vs-retirada-na-loja)" transform="translate(-925.000000, -745.000000)">
            <g id="Glyphs/Product/Shop" transform="translate(919.000000, 738.000000)">
                <mask id="mask-2" fill="white">
                    <use xlink:href="#path-1"></use>
                </mask>
                <use id="Mask" fill="#DA0812" fill-rule="nonzero" xlink:href="#path-1"></use>
                <g id="Colors/Red" mask="url(#mask-2)" fill="#DA0812" fill-rule="evenodd">
                    <rect id="Rectangle" x="0" y="0" width="34" height="34"></rect>
                </g>
            </g>
        </g>
    </g>
</svg>