<?xml version="1.0" encoding="UTF-8"?>
<svg width="109px" height="45px" viewBox="0 0 109 45" version="1.1" xmlns="http://www.w3.org/2000/svg" xmlns:xlink="http://www.w3.org/1999/xlink">
    <!-- Generator: Sketch 47.1 (45422) - http://www.bohemiancoding.com/sketch -->
    <title>@1xFC Logo</title>
    <desc>Created with Sketch.</desc>
    <defs>
        <polygon id="path-1" points="3.90681004e-05 0.329869565 108.989842 0.329869565 108.989842 44.6086174 3.90681004e-05 44.6086174"></polygon>
    </defs>
    <g id="Page-1" stroke="none" stroke-width="1" fill="none" fill-rule="evenodd">
        <g id="home---Pedidos-em-aberto" transform="translate(-72.000000, -31.000000)">
            <g id="FC-Logo" transform="translate(72.000000, 31.000000)">
                <g id="Group-3" transform="translate(0.000000, 0.061435)">
                    <mask id="mask-2" fill="white">
                        <use xlink:href="#path-1"></use>
                    </mask>
                    <g id="Clip-2"></g>
                    <path d="M62.4425839,0.329791304 C60.2223437,0.329791304 58.4158348,2.18144348 58.4158348,4.45726957 C58.4158348,5.7924 59.0663186,7.02266087 60.0973258,7.78531304 L58.8631645,8.2674 C57.6766663,7.12557391 56.1303509,6.50183478 54.4656591,6.50183478 C53.027953,6.50183478 51.618376,7.00153043 50.4404728,7.91913913 C49.6708312,7.1784 48.6023186,6.74170435 47.540057,6.74170435 C47.167738,6.74170435 46.7563509,6.77770435 46.3578563,6.84226957 L46.3578563,5.89218261 L46.3578563,5.03874783 L45.5620391,5.34396522 L39.1759674,7.79470435 C38.4141394,7.12126957 37.4261072,6.74170435 36.4083832,6.74170435 C36.0391896,6.74170435 35.6403043,6.77692174 35.2293079,6.8454 L35.2293079,5.89218261 L35.2293079,5.0367913 L34.4323186,5.34435652 L26.8538885,8.27170435 C25.676376,7.1874 24.0808348,6.54957391 22.5106878,6.54957391 C21.3902147,6.54957391 20.2584118,6.86535652 19.2754584,7.43744348 L19.2754584,7.27974783 L19.2754584,6.6927913 L18.6894369,6.6927913 L0.586060573,6.6927913 L3.90681004e-05,6.6927913 L3.90681004e-05,7.27974783 L3.90681004e-05,12.9258783 L3.90681004e-05,13.5128348 L0.586060573,13.5128348 L1.97180609,13.5128348 C2.41874516,13.5128348 2.76918602,13.8849652 2.76918602,14.3600087 L2.76918602,22.7800957 C2.76918602,23.2320522 2.39647634,23.6284435 1.97180609,23.6284435 L0.586060573,23.6284435 L3.90681004e-05,23.6284435 L3.90681004e-05,24.2154 L3.90681004e-05,29.8591826 L3.90681004e-05,30.4461391 L0.586060573,30.4461391 L13.8164728,30.4461391 L14.4024943,30.4461391 L14.4024943,29.8591826 L14.4024943,24.2154 L14.4024943,24.0850957 L17.3036914,24.0850957 L17.8897129,24.0850957 L17.8897129,23.4981391 L17.8897129,22.9714435 C18.1928814,23.239487 18.53629,23.5102696 18.9230642,23.7861391 L18.9332219,23.7931826 L18.9437703,23.8002261 C19.9837631,24.4767913 21.2503509,24.8497043 22.5106878,24.8497043 C23.3498706,24.8497043 24.2289029,24.6618783 25.0294082,24.3210522 L25.0294082,24.8023565 L25.6154297,24.8023565 L49.5774584,24.8023565 C47.6533545,26.9983565 46.5715588,29.818487 46.5715588,32.7313565 C46.5715588,35.9189217 47.7897022,38.9049652 50.0013473,41.1397043 C52.2149459,43.3767913 55.1747452,44.6086174 58.3357452,44.6086174 C62.699652,44.6086174 66.5818491,41.7818348 68.0535444,37.6359652 C69.2627022,38.457313 70.7277559,38.9170957 72.1881215,38.9170957 C73.4312685,38.9170957 74.663867,38.5895739 75.8050462,37.9619217 L75.8050462,38.0879217 L75.8050462,38.6748783 L76.3910677,38.6748783 L79.7333437,38.6748783 L80.3193652,38.6748783 L80.3193652,38.3254435 C81.2948957,38.7077478 82.3516878,38.9170957 83.3166699,38.9170957 C84.8387631,38.9170957 86.3288204,38.3266174 87.4266341,37.3111826 C88.3361394,38.3152696 89.6355444,38.9170957 90.9579996,38.9170957 C92.1667667,38.9170957 93.3931143,38.5379217 94.3897416,37.8656609 C95.3426125,38.5379217 96.4888706,38.9170957 97.5972326,38.9170957 C98.5243186,38.9170957 99.5584513,38.6866174 100.537498,38.2644 C101.258695,38.6279217 102.020523,38.818487 102.756566,38.818487 C104.006745,38.818487 105.219028,38.3199652 106.083605,37.450487 L108.623813,34.8150522 L108.989881,34.435487 L108.651552,34.0308783 L106.692286,31.6842261 L106.161351,31.0487478 L106.161351,26.3214 C106.161351,23.2801826 103.750068,20.8059652 100.786362,20.8059652 L100.692208,20.8071391 L99.3174011,20.8067478 C98.3867989,20.8067478 97.3831394,21.0215739 96.4169853,21.421487 L96.4169853,21.3937043 L96.4169853,20.8067478 L95.8309638,20.8067478 L94.3131681,20.8067478 L94.3131681,17.8524 L94.3131681,17.2654435 L93.7271466,17.2654435 L89.5726448,17.2654435 C89.4624728,17.2654435 89.3948849,17.1899217 89.3948849,17.1359217 L89.3948849,12.2078348 C89.3948849,9.19361739 86.9890713,6.74170435 84.0316161,6.74170435 L82.6486054,6.74170435 C81.3156018,6.74170435 79.9661896,7.11109565 78.8011789,7.78883478 C78.0002828,7.11109565 77.0224082,6.74170435 76.0089817,6.74170435 C75.6444763,6.74170435 75.2573115,6.77535652 74.8740534,6.83913913 L74.8740534,5.89218261 L74.8740534,5.03992174 L74.0794082,5.34357391 L67.2315516,7.95983478 L67.2315516,5.89218261 L67.2315516,5.04813913 L66.4412039,5.3420087 L66.4193258,5.35022609 C66.4814441,5.06066087 66.5142613,4.75974783 66.5142613,4.45726957 C66.5142613,2.18144348 64.6878276,0.329791304 62.4425839,0.329791304 M62.4425839,0.916747826 C64.353014,0.916747826 65.9282398,2.49526957 65.9282398,4.45726957 C65.9282398,5.12757391 65.7375875,5.84483478 65.3547201,6.37231304 L66.6455301,5.89218261 L66.6455301,8.81170435 L74.2880319,5.89218261 L74.2880319,7.56813913 C74.8123258,7.42257391 75.4346806,7.32866087 76.0089817,7.32866087 C77.0106878,7.32866087 77.9666842,7.75909565 78.6824118,8.47674783 C78.6824118,8.47674783 78.7300749,8.47674783 78.7300749,8.52448696 C79.8755516,7.75909565 81.2624692,7.32866087 82.6486054,7.32866087 L84.0316161,7.32866087 C86.6581645,7.32866087 88.8088634,9.52896522 88.8088634,12.2078348 L88.8088634,17.1359217 C88.8088634,17.5194 89.1436771,17.8524 89.5726448,17.8524 L93.7271466,17.8524 L93.7271466,21.3937043 L95.8309638,21.3937043 L95.8309638,22.3512261 C96.8822864,21.7775739 98.1234799,21.3937043 99.3174011,21.3937043 L100.702365,21.3937043 C100.730104,21.393313 100.758233,21.3929217 100.786362,21.3929217 C103.51605,21.3929217 105.575329,23.6667913 105.575329,26.3214 L105.575329,31.9655739 C105.575329,32.1580957 105.717147,32.3009217 105.910143,32.3009217 C106.053523,32.3009217 106.242613,32.2046609 106.242613,32.0610522 L108.202268,34.407313 L105.668311,37.036487 C104.906874,37.8022696 103.856724,38.2315304 102.756566,38.2315304 C101.992785,38.2315304 101.227831,37.9924435 100.559767,37.6101391 C99.651824,38.0397913 98.5997201,38.3301391 97.5972326,38.3301391 C96.4040928,38.3301391 95.2574441,37.8496174 94.3975552,37.1327478 C93.4427308,37.8961826 92.2015373,38.3301391 90.9579996,38.3301391 C89.5726448,38.3301391 88.2357344,37.5627913 87.470781,36.4174435 C86.4671215,37.6101391 84.8922864,38.3301391 83.3166699,38.3301391 C82.3118384,38.3301391 81.2624692,38.0879217 80.3533545,37.7060087 L80.2103652,37.7060087 C79.9712685,37.7060087 79.7333437,37.8496174 79.7333437,38.0879217 L76.3910677,38.0879217 L76.3910677,36.8932696 C75.1487022,37.8022696 73.7149029,38.3301391 72.1881215,38.3301391 C70.5621072,38.3301391 68.9384369,37.7060087 67.7441251,36.6565304 C66.5974763,40.959313 62.6793366,44.0216609 58.3357452,44.0216609 C52.1246986,44.0216609 47.1575803,38.9980957 47.1575803,32.7313565 C47.1575803,29.4784435 48.5909889,26.3683565 50.9784405,24.2154 L25.6154297,24.2154 L25.6154297,23.3545304 C24.7063151,23.9297478 23.5608384,24.2627478 22.5106878,24.2627478 C21.3640391,24.2627478 20.2181717,23.9297478 19.2633473,23.3079652 C18.5937201,22.8297913 17.8303294,22.2080087 17.3036914,21.4884 L17.3036914,23.4981391 L11.7142183,23.4981391 L11.7142183,22.1117478 C11.7142183,21.727487 11.3825301,21.3937043 10.999272,21.3937043 L10.999272,22.7800957 C10.999272,23.5450957 11.6685086,24.2154 12.4307272,24.2154 L13.8164728,24.2154 L13.8164728,29.8591826 L0.586060573,29.8591826 L0.586060573,24.2154 L1.97180609,24.2154 C2.73480609,24.2154 3.35520753,23.5450957 3.35520753,22.7800957 L3.35520753,14.3600087 C3.35520753,13.546487 2.73480609,12.9258783 1.97180609,12.9258783 L0.586060573,12.9258783 L0.586060573,7.27974783 L18.6894369,7.27974783 L18.6894369,8.57183478 C19.7403688,7.66322609 21.1249423,7.13653043 22.5106878,7.13653043 C24.0378599,7.13653043 25.6154297,7.80683478 26.7136341,8.95492174 L34.6432864,5.89218261 L34.6432864,7.56813913 C35.2156341,7.42257391 35.8368168,7.32866087 36.4083832,7.32866087 C37.4124333,7.32866087 38.3676484,7.75909565 39.0368849,8.47674783 L45.7718348,5.89218261 L45.7718348,7.56813913 C46.2984728,7.42257391 46.9665373,7.32866087 47.540057,7.32866087 C48.495272,7.32866087 49.4989315,7.75909565 50.1666054,8.47674783 C50.2627129,8.52448696 50.3572577,8.62035652 50.4057022,8.71583478 C51.5050785,7.71096522 52.9365337,7.0887913 54.4656591,7.0887913 C56.0901108,7.0887913 57.6165014,7.75909565 58.7154871,8.95492174 L61.5346412,7.8537913 C60.0543509,7.42257391 59.0018563,6.03696522 59.0018563,4.45726957 C59.0018563,2.49526957 60.5317631,0.916747826 62.4425839,0.916747826" id="Fill-1" fill="#FEFEFE" mask="url(#mask-2)"></path>
                </g>
                <path d="M62.4918097,3.13246957 C63.2548097,3.13246957 63.8771645,3.75425217 63.8771645,4.51846957 C63.8771645,5.28386087 63.2548097,5.95338261 62.4918097,5.95338261 C61.727247,5.95338261 61.0580104,5.28386087 61.0580104,4.51846957 C61.0580104,3.75425217 61.727247,3.13246957 62.4918097,3.13246957 L62.4918097,3.13246957 Z M15.2029996,13.7039478 C15.2029996,12.5089043 14.2958384,11.5983391 13.1472362,11.5983391 L8.94507133,11.5983391 L8.94507133,17.243687 L12.4307272,17.243687 C13.1948993,17.243687 13.8164728,16.6246435 13.8164728,15.8107304 L13.8164728,15.0922957 L15.2029996,15.0922957 L15.2029996,21.4552957 L13.8164728,21.4552957 L13.8164728,20.7368609 C13.8164728,19.9714696 13.1948993,19.3500783 12.4307272,19.3500783 L8.94507133,19.3500783 L8.94507133,24.9946435 C8.94507133,25.7608174 9.56586344,26.3829913 10.3300355,26.3829913 L11.762272,26.3829913 L11.762272,27.818687 L2.68909642,27.818687 L2.68909642,26.3829913 L4.07366989,26.3829913 C4.88472366,26.3829913 5.50512509,25.7608174 5.50512509,24.9946435 L5.50512509,12.2694261 C5.50512509,11.5048174 4.88472366,10.8822522 4.07366989,10.8822522 L2.68909642,10.8822522 L2.68909642,9.49586087 L16.5867918,9.49586087 L16.5867918,13.7039478 L15.2029996,13.7039478 Z M32.5894763,9.01651304 L32.5894763,11.0254696 C33.5923545,10.0206 35.0249817,9.49586087 36.4083832,9.49586087 C37.3643796,9.49586087 38.1785588,10.2592957 38.1785588,11.2160348 C38.1785588,12.1747304 37.3643796,12.9874696 36.4083832,12.9874696 C35.8368168,12.9874696 35.3109602,12.6990783 35.0249817,12.1747304 C34.8331573,11.7908609 34.451462,11.5983391 33.9740498,11.5983391 C33.2087057,11.5983391 32.5894763,12.2220783 32.5894763,12.9874696 L32.5894763,19.3500783 C32.5894763,20.1150783 33.2087057,20.7368609 33.9740498,20.7368609 L34.6432864,20.7368609 L34.6432864,22.1733391 L27.7161215,22.1733391 L27.7161215,20.7368609 L28.4334118,20.7368609 C29.1975839,20.7368609 29.8191573,20.1150783 29.8191573,19.3500783 L29.8191573,12.9874696 C29.8191573,12.4134261 29.3397918,11.9340783 28.7682254,11.9340783 C28.6252362,11.9340783 28.5295194,11.9340783 28.4334118,11.9829913 L27.7161215,12.2694261 L27.7161215,10.8822522 L32.5894763,9.01651304 Z M43.7180247,9.01651304 L43.7180247,11.0254696 C44.7201215,10.0206 46.1539208,9.49586087 47.540057,9.49586087 C48.495272,9.49586087 49.3074978,10.2592957 49.3074978,11.2160348 C49.3074978,12.1747304 48.495272,12.9874696 47.540057,12.9874696 C46.9665373,12.9874696 46.4410713,12.6990783 46.1539208,12.1747304 C46.0101502,11.7908609 45.5331287,11.5983391 45.1022075,11.5983391 C44.3403796,11.5983391 43.7180247,12.2220783 43.7180247,12.9874696 L43.7180247,19.3500783 C43.7180247,20.1150783 44.3403796,20.7368609 45.1022075,20.7368609 L45.8194978,20.7368609 L45.8194978,22.1733391 L38.8458419,22.1733391 L38.8458419,20.7368609 L39.5611789,20.7368609 C40.3273043,20.7368609 40.9484871,20.1150783 40.9484871,19.3500783 L40.9484871,12.9874696 C40.9484871,12.4134261 40.4706842,11.9340783 39.8967738,11.9340783 C39.7998849,11.9340783 39.6580677,11.9340783 39.5611789,11.9829913 L38.8458419,12.2694261 L38.8458419,10.8822522 L43.7180247,9.01651304 Z M64.5925014,9.01651304 L64.5925014,19.3500783 C64.5925014,20.1150783 65.2129029,20.7368609 65.9762935,20.7368609 L66.6455301,20.7368609 L66.6455301,22.1733391 L59.6703115,22.1733391 L59.6703115,20.7368609 L60.3887738,20.7368609 C61.1533366,20.7368609 61.7733473,20.1150783 61.7733473,19.3500783 L61.7733473,12.9874696 C61.7733473,12.4134261 61.2967165,11.9340783 60.7708599,11.9340783 C60.6274799,11.9340783 60.5317631,11.9340783 60.3887738,12.0299478 L59.6703115,12.2694261 L59.6703115,10.8822522 L64.5925014,9.01651304 Z M72.2342219,9.01651304 L72.2342219,11.0254696 C73.2378814,10.0206 74.6220642,9.49586087 76.0570355,9.49586087 C77.0106878,9.49586087 77.7736878,10.2592957 77.7736878,11.2160348 C77.7736878,12.1747304 77.0106878,12.9874696 76.0570355,12.9874696 C75.4803903,12.9874696 74.908824,12.6990783 74.6705086,12.1747304 C74.4779029,11.7908609 74.0493258,11.5983391 73.6184047,11.5983391 C72.8573581,11.5983391 72.2342219,12.2220783 72.2342219,12.9874696 L72.2342219,19.3500783 C72.2342219,20.1150783 72.8573581,20.7368609 73.6184047,20.7368609 L74.2880319,20.7368609 L74.2880319,22.1733391 L67.3620391,22.1733391 L67.3620391,20.7368609 L68.0312756,20.7368609 C68.795057,20.7368609 69.4178025,20.1150783 69.4178025,19.3500783 L69.4178025,12.9874696 C69.4178025,12.4134261 68.9384369,11.9340783 68.4137523,11.9340783 C68.2699817,11.9340783 68.1273832,11.9340783 68.0312756,11.9829913 L67.3620391,12.2694261 L67.3620391,10.8822522 L72.2342219,9.01651304 Z M59.0018563,39.9690783 C60.9615122,40.0637739 63.5423509,39.1086 64.2096341,37.3876435 L65.0202971,37.8161217 C63.7302685,40.3048174 61.1052828,41.9310783 58.3357452,41.9310783 C53.3190104,41.9310783 49.3074978,37.8161217 49.3074978,32.7444261 C49.3074978,27.6754696 53.3190104,23.606687 58.3357452,23.606687 C59.4808312,23.606687 61.1533366,24.1326 62.1573867,24.6589043 C62.3480391,24.7551652 62.7766161,24.8987739 62.9668778,24.8510348 C63.3016914,24.8040783 63.5896233,24.3728609 63.6837774,24.1326 L65.2590032,24.1326 L65.2590032,30.6396 L64.9738061,30.6396 L64.0182004,30.6396 C64.0182004,27.818687 61.7733473,25.568687 59.0018563,25.568687 C57.7129996,25.568687 56.422971,26.0953826 55.4697093,27.0517304 C54.0363007,28.5363391 53.1752398,30.6396 53.1752398,32.7444261 C53.1752398,34.8523826 54.0363007,36.9548609 55.4697093,38.4872087 C56.422971,39.3942522 57.7129996,39.9217304 59.0018563,39.9690783 L59.0018563,39.9690783 Z M80.5928419,35.5203391 L80.4475086,35.5203391 C80.2103652,35.5203391 79.9712685,35.7120783 79.9712685,35.9492087 C79.9712685,35.9973391 79.9712685,36.0470348 80.0193222,36.0943826 L78.4433151,36.0943826 L78.4433151,32.0267739 L79.8755516,32.0267739 C79.8755516,33.4139478 80.974928,34.5170348 82.2653473,34.5170348 C83.0279566,34.5170348 83.6971932,33.8459478 83.6971932,33.0793826 C83.6971932,32.7925565 83.5542039,32.5061217 83.3627703,32.3143826 L79.4454118,28.9186435 C78.8273545,28.3927304 78.4433151,27.5796 78.4433151,26.7652957 C78.4433151,25.999513 78.77891,25.2333391 79.3020319,24.7082087 C80.0677667,23.9420348 81.1667523,23.4630783 82.2653473,23.4630783 C82.9818563,23.4630783 83.6491394,23.6532522 84.2234405,23.9420348 C84.2718849,23.9909478 84.3664297,23.9909478 84.4144835,23.9909478 C84.5578634,23.9909478 84.6535803,23.9420348 84.7492971,23.8477304 L86.0862075,23.8477304 L86.0862075,26.7652957 L84.6996806,26.7652957 C84.6996806,25.7608174 83.93629,24.9946435 82.9818563,24.9946435 C82.2172935,24.9946435 81.5968921,25.6160348 81.5968921,26.3829913 C81.5968921,26.7179478 81.7398814,27.0055565 81.9309244,27.196513 L85.8471108,30.6396 C86.4671215,31.1662957 86.8027165,31.930513 86.8027165,32.7444261 C86.8027165,34.7072087 85.2728097,36.2837739 83.3627703,36.2837739 C82.4067738,36.2837739 81.4058491,35.9973391 80.5928419,35.5203391 L80.5928419,35.5203391 Z M91.0048814,36.2837739 C89.859014,36.2837739 88.9045803,35.3293826 88.9045803,34.180513 L88.9045803,24.9946435 L86.8027165,24.9946435 L86.8027165,23.606687 C88.4748312,23.2232087 89.7652505,21.7890783 90.0508384,20.0215565 L91.6756806,20.0215565 L91.6756806,23.5597304 L93.7271466,23.5597304 L93.7271466,24.9946435 L91.6756806,24.9946435 L91.6756806,32.7444261 C91.6756806,33.3192522 92.1527022,33.7970348 92.7246591,33.7970348 C93.0583007,33.7970348 93.3954584,33.6072522 93.5865014,33.3666 L94.2537846,34.0842522 C93.7271466,35.377513 92.3890642,36.2837739 91.0048814,36.2837739 L91.0048814,36.2837739 Z M100.702365,30.2569043 L99.3174011,30.9256435 L98.7446627,31.2625565 C98.2656878,31.5486 97.9781466,32.1222522 97.9781466,32.6970783 C97.9781466,33.4139478 98.5536197,34.0369043 99.2693473,34.0369043 C99.651824,33.9879913 99.9854656,33.8459478 100.177681,33.6546 L100.702365,33.2711217 L100.702365,30.2569043 Z M99.3174011,29.1103826 L100.702365,28.6787739 L100.702365,25.999513 C100.702365,25.4254696 100.226125,24.9472957 99.651824,24.9472957 C99.5076627,24.9472957 99.4131179,24.9472957 99.3174011,24.9946435 C98.8880427,25.1370783 98.5536197,25.5232957 98.5536197,25.999513 C98.5536197,26.0476435 98.5997201,26.0953826 98.5997201,26.1423391 L98.5997201,26.3352522 C98.5997201,27.340513 97.8359387,28.1047304 96.8822864,28.1047304 C95.9266806,28.1047304 95.1144548,27.340513 95.1144548,26.3352522 C95.1144548,25.999513 95.2574441,25.6160348 95.4961502,25.280687 C96.4505839,24.1807304 97.8359387,23.5127739 99.3174011,23.5127739 L100.702365,23.5127739 C102.2311,23.5127739 103.473075,24.8040783 103.473075,26.3352522 L103.473075,33.4139478 C103.473075,33.7970348 103.760225,34.0842522 104.14153,34.0842522 C104.332964,34.0842522 104.476344,34.0369043 104.61738,33.9422087 L105.19129,34.6582957 L104.236466,35.6158174 C103.856724,35.9973391 103.330086,36.2379913 102.756566,36.2379913 C101.992785,36.2379913 101.275494,35.7609913 100.939509,35.0409913 C100.46405,35.4722087 99.9378025,35.8083391 99.3174011,35.9973391 C98.8880427,36.1417304 98.4086771,36.2379913 97.9304835,36.2379913 L97.5972326,36.2379913 C96.0231789,36.2379913 94.7804226,34.945513 94.7319781,33.4139478 C94.7319781,31.6906435 95.8309638,30.2095565 97.4073616,29.6820783 L99.3174011,29.1103826 Z M82.6486054,15.0437739 L84.0316161,14.6133391 L84.0316161,11.9340783 C84.0316161,11.3596435 83.5542039,10.8822522 82.9818563,10.8822522 C82.838867,10.8822522 82.7411968,10.8822522 82.6486054,10.9299913 C82.2172935,11.0724261 81.883652,11.455513 81.883652,11.9340783 C81.883652,11.9829913 81.9309244,12.0299478 81.9309244,12.0788609 L81.9309244,12.2694261 C81.9309244,13.2739043 81.1667523,14.0412522 80.2103652,14.0412522 C79.2567129,14.0412522 78.4433151,13.2739043 78.4433151,12.2694261 C78.4433151,11.9340783 78.5863043,11.5521652 78.8273545,11.2160348 C79.7802254,10.1164696 81.1667523,9.49586087 82.6486054,9.49586087 L84.0316161,9.49586087 C85.5595695,9.49586087 86.8027165,10.7382522 86.8027165,12.2694261 L86.8027165,19.3019478 C86.8027165,19.7316 87.0894763,20.0215565 87.4711717,20.0215565 C87.6633867,20.0215565 87.8055946,19.9714696 87.9489746,19.8767739 L88.4748312,20.5936435 L87.5676699,21.5499913 C87.1844118,21.9346435 86.6581645,22.1733391 86.0862075,22.1733391 C85.3208634,22.1733391 84.6059172,21.6939913 84.2718849,20.9759478 C83.7936914,21.4079478 83.2201717,21.742513 82.6486054,21.9346435 C82.2172935,22.0778609 81.7398814,22.1733391 81.2624692,22.1733391 L80.8788204,22.1733391 C79.3504763,22.1733391 78.0620104,20.8792957 78.0620104,19.3500783 C78.0620104,17.6752957 79.1137237,16.1441217 80.7366125,15.6189913 L82.6486054,15.0437739 Z M84.0316161,16.1910783 L82.6486054,16.8625565 L82.0770391,17.1971217 C81.5968921,17.4831652 81.2624692,18.0576 81.2624692,18.6316435 C81.2624692,19.3500783 81.883652,19.9714696 82.6005516,19.9714696 C82.9818563,19.9233391 83.2678348,19.7812957 83.5081036,19.5887739 L84.0316161,19.2060783 L84.0316161,16.1910783 Z M55.8514047,13.7039478 C55.8013975,13.1314696 55.5638634,12.5562522 55.3247667,12.0299478 C55.0876233,11.5983391 54.6567022,11.3146435 54.1316269,11.3146435 C53.6057703,11.3146435 53.1752398,11.5983391 52.9365337,12.0788609 C52.6501645,12.5562522 52.3649674,13.1314696 52.2680785,13.7039478 L54.0824011,13.7039478 L55.8514047,13.7039478 Z M54.0824011,9.20746957 L54.4656591,9.20746957 C55.2310032,9.20746957 56.0412756,9.49586087 56.6624584,9.8766 C58.3818455,11.0254696 59.4347308,13.0352087 59.4347308,15.0922957 L54.0824011,15.0922957 L52.028591,15.0922957 C52.028591,16.8144261 52.8404262,18.3933391 54.0824011,19.493687 C54.226953,19.5887739 54.370333,19.7316 54.5129315,19.8278609 C54.8004728,19.9714696 55.0876233,20.1150783 55.4208742,20.1150783 C55.706462,20.1150783 56.0412756,19.9714696 56.2803724,19.7812957 C57.4270211,19.0624696 58.2388563,17.9139913 58.5728885,16.5276 L59.6234297,17.3888609 C59.240953,19.1571652 58.1419674,20.7849913 56.6624584,21.7890783 C56.0412756,22.2199043 55.2310032,22.4593826 54.4656591,22.4593826 L54.0824011,22.4593826 C53.4143366,22.3642957 52.7939351,22.1244261 52.3149602,21.7890783 C50.3572577,20.4985565 49.1625552,18.2023826 49.1625552,15.8107304 C49.1625552,13.4640783 50.3572577,11.2160348 52.3149602,9.8766 C52.7939351,9.54281739 53.4143366,9.30412174 54.0824011,9.20746957 L54.0824011,9.20746957 Z M22.1293832,11.3146435 C21.6504082,11.3146435 21.2206591,11.5983391 21.0292254,12.0788609 C20.7428563,12.5562522 20.4557057,13.1314696 20.3138885,13.7039478 L22.1293832,13.7039478 L23.942143,13.7039478 C23.8475982,13.1314696 23.6577272,12.5562522 23.4178491,12.0299478 C23.1810964,11.5983391 22.7021215,11.3146435 22.2223652,11.3146435 L22.1293832,11.3146435 Z M22.1293832,19.493687 C22.2719817,19.5887739 22.4634154,19.7316 22.6064047,19.8278609 C22.8931645,19.9714696 23.1810964,20.1150783 23.514738,20.1150783 C23.8011072,20.1150783 24.0870857,19.9714696 24.3718921,19.7812957 C25.4716591,19.0624696 26.331548,17.9139913 26.6663616,16.5276 L27.7161215,17.3888609 C27.3340355,19.1571652 26.2377846,20.7849913 24.7063151,21.7890783 C24.0870857,22.2199043 23.3225229,22.4593826 22.5587416,22.4593826 C22.4137989,22.4593826 22.2719817,22.4593826 22.1293832,22.4124261 C21.5066376,22.3642957 20.8835014,22.1244261 20.407652,21.7890783 C18.4507308,20.4985565 17.256419,18.2023826 17.256419,15.8107304 C17.256419,13.4640783 18.4507308,11.2160348 20.3607703,9.8766 C20.8835014,9.54281739 21.5066376,9.30412174 22.1293832,9.20746957 L22.5587416,9.20746957 C23.3225229,9.20746957 24.0870857,9.49586087 24.7063151,9.8766 C26.4272649,11.0254696 27.5254692,13.0352087 27.5254692,15.1408174 L22.1293832,15.1408174 L20.1240176,15.0922957 C20.1240176,16.8144261 20.8835014,18.3933391 22.1293832,19.493687 L22.1293832,19.493687 Z M72.1881215,23.3206435 C73.3324262,23.3206435 74.5275194,23.7514696 75.3874082,24.5653826 C76.8208168,25.9036435 77.7736878,27.818687 77.7736878,29.8272522 C77.7736878,31.8831652 76.8680892,33.7970348 75.3874082,35.1376435 C74.5275194,35.9034261 73.3800892,36.3831652 72.1881215,36.3831652 C70.9910749,36.3831652 69.8452075,35.9034261 68.9384369,35.1376435 C67.505419,33.7970348 66.6455301,31.8831652 66.6455301,29.8272522 C66.6455301,27.818687 67.505419,25.9036435 68.987272,24.5653826 C69.8452075,23.7984261 70.9910749,23.3206435 72.1881215,23.3206435 L72.1881215,23.3206435 Z M73.1421645,25.3769478 C72.8573581,25.1370783 72.5229351,24.9472957 72.1881215,24.9472957 C71.8533079,24.9946435 71.4692685,25.1370783 71.229781,25.3769478 C70.0854763,26.5266 69.4178025,28.2006 69.4178025,29.8272522 C69.4178025,31.5004696 70.0854763,33.1748609 71.229781,34.3233391 C71.4692685,34.612513 71.8533079,34.7072087 72.1881215,34.7553391 C72.5686448,34.7553391 72.8573581,34.612513 73.1421645,34.3233391 C74.2880319,33.1748609 74.9568778,31.5004696 74.9568778,29.8746 C74.9568778,28.151687 74.2880319,26.5743391 73.1421645,25.3769478 L73.1421645,25.3769478 Z" id="Fill-4" fill="#FEFEFE"></path>
            </g>
        </g>
    </g>
</svg>