<?xml version="1.0" encoding="UTF-8"?>
<svg width="84px" height="84px" viewBox="0 0 84 84" version="1.1" xmlns="http://www.w3.org/2000/svg" xmlns:xlink="http://www.w3.org/1999/xlink">
    <!-- Generator: Sketch 47.1 (45422) - http://www.bohemiancoding.com/sketch -->
    <title>id cliente@1x</title>
    <desc>Created with Sketch.</desc>
    <defs></defs>
    <g id="Page-1" stroke="none" stroke-width="1" fill="none" fill-rule="evenodd">
        <g id="ID-Cliente" transform="translate(-138.000000, -87.000000)" fill-rule="nonzero">
            <g id="app-bar">
                <g id="id-cliente" transform="translate(140.000000, 89.000000)">
                    <circle id="Oval" stroke="#D9D9D9" stroke-width="3" fill="#F4F4F4" cx="40" cy="40" r="40"></circle>
                    <path d="M79.9999887,39.969643 C79.9999962,39.9797611 80,39.9898801 80,40 C80,61.3273903 63.308659,78.7563091 42.2764231,79.9363103 L17.4151611,61.8591309 L38.8720703,42.0925903 L38.8720703,36.6427612 L43.3917236,18.4924316 L79.9999966,39.9696476 Z" id="Combined-Shape" fill-opacity="0.15" fill="#000000"></path>
                    <g id="Group" transform="translate(17.500000, 17.500000)">
                        <circle id="Oval" fill="#FFD300" cx="21.118125" cy="10.618125" r="10.618125"></circle>
                        <path d="M21.4030469,0 C21.3517187,0 21.3013281,0.00328125 21.25,0.003984375 L21.25,21.2301563 C21.3013281,21.2308594 21.3517187,21.2341406 21.4030469,21.2341406 C27.2664062,21.2341406 32.02,16.4805469 32.02,10.6171875 C32.02,4.75382812 27.2666406,0 21.4030469,0 Z" id="Shape" fill="#F4A200"></path>
                        <path d="M0,44.3974219 C0,32.3036719 9.80367187,22.5 21.8974219,22.5 C33.9911719,22.5 43.7948437,32.3036719 43.7948437,44.3974219 L0,44.3974219 Z" id="Shape" fill="#FC6F58"></path>
                        <path d="M21.4030469,22.5 C21.3517187,22.5 21.3013281,22.50375 21.25,22.5039844 L21.25,44.3974219 L43.3004688,44.3974219 C43.3004688,32.3036719 33.4967969,22.5 21.4030469,22.5 Z" id="Shape" fill="#F1543F"></path>
                    </g>
                    <circle id="Oval-Copy" stroke="#D9D9D9" stroke-width="4" cx="40" cy="40" r="40"></circle>
                </g>
            </g>
        </g>
    </g>
</svg>