<?xml version="1.0" encoding="UTF-8"?>
<svg width="52px" height="52px" viewBox="0 0 52 52" version="1.1" xmlns="http://www.w3.org/2000/svg" xmlns:xlink="http://www.w3.org/1999/xlink">
    <!-- Generator: Sketch 47.1 (45422) - http://www.bohemiancoding.com/sketch -->
    <title>placeholder@1x</title>
    <desc>Created with Sketch.</desc>
    <defs></defs>
    <g id="Page-1" stroke="none" stroke-width="1" fill="none" fill-rule="evenodd">
        <g id="Sacola---ID.-Cliente" transform="translate(-14.000000, -355.000000)" fill-rule="nonzero">
            <g id="placeholder" transform="translate(16.000000, 357.000000)">
                <circle id="Oval" stroke="#D9D9D9" stroke-width="3" fill="#F4F4F4" cx="24" cy="24" r="24"></circle>
                <path d="M47.9052274,26.1475136 C47.0439804,35.8598036 40.3973231,43.9091193 31.4343935,46.8263228 L24.3745117,39.7944336 L31.7404785,21.7099609 L31.7404785,11.9714355 L47.9052274,26.1475136 Z" id="Combined-Shape" fill-opacity="0.15" fill="#000000"></path>
                <g id="Group-4" transform="translate(13.000000, 9.000000)">
                    <path d="M11.3076923,0.155153846 C5.15134615,0.155153846 0.160615385,5.14588462 0.160615385,11.3022308 C0.160615385,19.6625385 11.3076923,30.8093846 11.3076923,30.8093846 C11.3076923,30.8093846 22.4547692,20.2535385 22.4547692,11.3022308 C22.4547692,5.14588462 17.4640385,0.155153846 11.3076923,0.155153846 Z M11.3076923,14.0887692 C9.76869231,14.0887692 8.52092308,12.8412308 8.52092308,11.302 C8.52092308,9.763 9.76846154,8.51523077 11.3076923,8.51523077 C12.8466923,8.51523077 14.0944615,9.76276923 14.0944615,11.302 C14.0944615,12.8412308 12.8466923,14.0887692 11.3076923,14.0887692 Z" id="Shape" fill="#FC6F58"></path>
                    <path d="M11.3076923,0.155153846 C11.2806923,0.155153846 11.2541538,0.157 11.2273846,0.157115385 L11.2273846,8.51938462 C11.2543846,8.51857692 11.2806923,8.51546154 11.3076923,8.51546154 C12.8466923,8.51546154 14.0944615,9.763 14.0944615,11.3022308 C14.0944615,12.8414615 12.8466923,14.089 11.3076923,14.089 C11.2806923,14.089 11.2541538,14.0856538 11.2273846,14.0850769 L11.2273846,30.7280385 C11.2793077,30.7811154 11.3076923,30.8096154 11.3076923,30.8096154 C11.3076923,30.8096154 22.4547692,20.2537692 22.4547692,11.3024615 C22.4547692,5.14588462 17.4640385,0.155153846 11.3076923,0.155153846 Z" id="Shape" fill="#DD523C"></path>
                </g>
                <circle id="Oval-Copy-2" stroke="#D9D9D9" stroke-width="3" cx="24" cy="24" r="24"></circle>
            </g>
        </g>
    </g>
</svg>